ISO-10303-21;
HEADER;
FILE_DESCRIPTION (( 'STEP AP214' ),
    '1' );
FILE_NAME ('ÅÅÏß¿¨×ù_#001.STEP',
    '2024-08-23T02:37:20',
    ( '' ),
    ( '' ),
    'SwSTEP 2.0',
    'SolidWorks 2020',
    '' );
FILE_SCHEMA (( 'AUTOMOTIVE_DESIGN' ));
ENDSEC;

DATA;
#1 = VECTOR ( 'NONE', #708, 1000.000000000000000 ) ;
#2 = FACE_OUTER_BOUND ( 'NONE', #262, .T. ) ;
#3 = ORIENTED_EDGE ( 'NONE', *, *, #565, .F. ) ;
#4 = ORIENTED_EDGE ( 'NONE', *, *, #370, .F. ) ;
#5 = DIRECTION ( 'NONE',  ( -1.000000000000000000, 0.000000000000000000, 0.000000000000000000 ) ) ;
#6 = EDGE_CURVE ( 'NONE', #1000, #857, #1067, .T. ) ;
#7 = EDGE_LOOP ( 'NONE', ( #968, #90, #616, #623 ) ) ;
#8 = CARTESIAN_POINT ( 'NONE',  ( 14.10412228472833007, -3.000000000000000000, 3.500000000000000000 ) ) ;
#9 = CARTESIAN_POINT ( 'NONE',  ( 24.49999999344351664, 32.25355373135845127, -38.97453771266959421 ) ) ;
#10 =( LENGTH_UNIT ( ) NAMED_UNIT ( * ) SI_UNIT ( .MILLI., .METRE. ) );
#11 = EDGE_LOOP ( 'NONE', ( #1100, #570, #146, #529, #563, #445, #1113, #164 ) ) ;
#12 = FACE_OUTER_BOUND ( 'NONE', #184, .T. ) ;
#13 = ORIENTED_EDGE ( 'NONE', *, *, #272, .F. ) ;
#14 = DIRECTION ( 'NONE',  ( 1.000000000000000000, 0.000000000000000000, 0.000000000000000000 ) ) ;
#15 = VERTEX_POINT ( 'NONE', #389 ) ;
#16 = PLANE ( 'NONE',  #300 ) ;
#17 = VECTOR ( 'NONE', #305, 1000.000000000000000 ) ;
#18 = EDGE_CURVE ( 'NONE', #660, #517, #1248, .T. ) ;
#19 = EDGE_CURVE ( 'NONE', #648, #427, #295, .T. ) ;
#20 = AXIS2_PLACEMENT_3D ( 'NONE', #1160, #287, #669 ) ;
#21 = AXIS2_PLACEMENT_3D ( 'NONE', #372, #1244, #457 ) ;
#22 = LINE ( 'NONE', #1095, #1145 ) ;
#23 = DIRECTION ( 'NONE',  ( 0.7071067193692965880, 0.7071068430037930064, -0.000000000000000000 ) ) ;
#24 = ORIENTED_EDGE ( 'NONE', *, *, #647, .F. ) ;
#25 = LINE ( 'NONE', #847, #375 ) ;
#26 = FACE_OUTER_BOUND ( 'NONE', #104, .T. ) ;
#27 = EDGE_LOOP ( 'NONE', ( #288, #901, #950, #964, #167, #844 ) ) ;
#28 = LINE ( 'NONE', #403, #136 ) ;
#29 = EDGE_CURVE ( 'NONE', #153, #857, #289, .T. ) ;
#30 = DIRECTION ( 'NONE',  ( 0.000000000000000000, 1.000000000000000000, 0.000000000000000000 ) ) ;
#31 = VECTOR ( 'NONE', #284, 1000.000000000000000 ) ;
#32 = ADVANCED_FACE ( 'NONE', ( #675 ), #1063, .F. ) ;
#33 = DIRECTION ( 'NONE',  ( 1.000000000000000000, 0.000000000000000000, 0.000000000000000000 ) ) ;
#34 = VERTEX_POINT ( 'NONE', #203 ) ;
#35 = DIRECTION ( 'NONE',  ( 0.000000000000000000, 0.000000000000000000, -1.000000000000000000 ) ) ;
#36 = EDGE_CURVE ( 'NONE', #762, #727, #374, .T. ) ;
#37 = LINE ( 'NONE', #1193, #221 ) ;
#38 = VECTOR ( 'NONE', #1165, 1000.000000000000000 ) ;
#39 = DIRECTION ( 'NONE',  ( -0.000000000000000000, -0.000000000000000000, -1.000000000000000000 ) ) ;
#40 = CIRCLE ( 'NONE', #620, 5.250000000000000888 ) ;
#41 = ORIENTED_EDGE ( 'NONE', *, *, #777, .T. ) ;
#42 = DIRECTION ( 'NONE',  ( -0.7071068430037940056, 0.7071067193692956998, 0.000000000000000000 ) ) ;
#43 = LINE ( 'NONE', #618, #1124 ) ;
#44 = CARTESIAN_POINT ( 'NONE',  ( -1.126462992273219313E-14, 38.14999962202330863, 1.500000000000000000 ) ) ;
#45 = VERTEX_POINT ( 'NONE', #850 ) ;
#46 = DIRECTION ( 'NONE',  ( 0.7071067193692956998, 0.7071068430037940056, -0.000000000000000000 ) ) ;
#47 = DIRECTION ( 'NONE',  ( -0.000000000000000000, 0.000000000000000000, 1.000000000000000000 ) ) ;
#48 = ADVANCED_FACE ( 'NONE', ( #106 ), #481, .F. ) ;
#49 = LINE ( 'NONE', #931, #820 ) ;
#50 = VECTOR ( 'NONE', #158, 1000.000000000000000 ) ;
#51 = VERTEX_POINT ( 'NONE', #385 ) ;
#52 = CARTESIAN_POINT ( 'NONE',  ( 19.33130113298448904, 39.90693907851730415, 5.000000000000000888 ) ) ;
#53 = DIRECTION ( 'NONE',  ( 0.000000000000000000, -0.000000000000000000, 1.000000000000000000 ) ) ;
#54 = VECTOR ( 'NONE', #60, 1000.000000000000000 ) ;
#55 = DIRECTION ( 'NONE',  ( 0.7071068430037930064, -0.7071067193692965880, 0.000000000000000000 ) ) ;
#56 = ORIENTED_EDGE ( 'NONE', *, *, #1194, .F. ) ;
#57 = CARTESIAN_POINT ( 'NONE',  ( -0.1500000065566215457, 0.000000000000000000, -2.000000000000000000 ) ) ;
#58 = AXIS2_PLACEMENT_3D ( 'NONE', #546, #344, #160 ) ;
#59 = DIRECTION ( 'NONE',  ( 1.000000000000000000, -0.000000000000000000, 0.000000000000000000 ) ) ;
#60 = DIRECTION ( 'NONE',  ( 0.000000000000000000, 1.000000000000000000, 0.000000000000000000 ) ) ;
#61 = EDGE_LOOP ( 'NONE', ( #232, #685, #108, #151, #1243, #157 ) ) ;
#62 = FACE_OUTER_BOUND ( 'NONE', #791, .T. ) ;
#63 = EDGE_CURVE ( 'NONE', #450, #1011, #1161, .T. ) ;
#64 = ORIENTED_EDGE ( 'NONE', *, *, #963, .T. ) ;
#65 = DIRECTION ( 'NONE',  ( 0.000000000000000000, 0.000000000000000000, -1.000000000000000000 ) ) ;
#66 = LINE ( 'NONE', #1118, #353 ) ;
#67 = VERTEX_POINT ( 'NONE', #485 ) ;
#68 = LINE ( 'NONE', #257, #1180 ) ;
#69 = EDGE_CURVE ( 'NONE', #452, #171, #1045, .T. ) ;
#70 = VECTOR ( 'NONE', #103, 1000.000000000000000 ) ;
#71 = CARTESIAN_POINT ( 'NONE',  ( 17.98096508659633486, 36.64693907851730614, 5.000000000000000888 ) ) ;
#72 = DIRECTION ( 'NONE',  ( 0.000000000000000000, 0.000000000000000000, 1.000000000000000000 ) ) ;
#73 = ORIENTED_EDGE ( 'NONE', *, *, #1195, .F. ) ;
#74 = AXIS2_PLACEMENT_3D ( 'NONE', #1241, #380, #866 ) ;
#75 = ORIENTED_EDGE ( 'NONE', *, *, #554, .T. ) ;
#76 = CARTESIAN_POINT ( 'NONE',  ( 24.49999999344351664, 32.25355373135845838, 1.500000000000000000 ) ) ;
#77 = ORIENTED_EDGE ( 'NONE', *, *, #776, .T. ) ;
#78 = CARTESIAN_POINT ( 'NONE',  ( 0.5177668891612171587, 1.250000000000000222, 4.500000000000000888 ) ) ;
#79 = VECTOR ( 'NONE', #378, 1000.000000000000000 ) ;
#80 = ORIENTED_EDGE ( 'NONE', *, *, #69, .T. ) ;
#81 = VECTOR ( 'NONE', #553, 1000.000000000000000 ) ;
#82 = CARTESIAN_POINT ( 'NONE',  ( -20.00000000655676047, 19.64644316126092249, 2.500000000000000444 ) ) ;
#83 = VERTEX_POINT ( 'NONE', #948 ) ;
#84 = ORIENTED_EDGE ( 'NONE', *, *, #681, .T. ) ;
#85 = DIRECTION ( 'NONE',  ( -0.000000000000000000, -0.000000000000000000, -1.000000000000000000 ) ) ;
#86 = EDGE_LOOP ( 'NONE', ( #98, #956, #367, #359 ) ) ;
#87 = CARTESIAN_POINT ( 'NONE',  ( 24.49999999344351664, 34.73824112178239432, 5.000000000000000888 ) ) ;
#88 = DIRECTION ( 'NONE',  ( 0.000000000000000000, -1.000000000000000000, 0.000000000000000000 ) ) ;
#89 = ADVANCED_FACE ( 'NONE', ( #189 ), #1171, .T. ) ;
#90 = ORIENTED_EDGE ( 'NONE', *, *, #266, .T. ) ;
#91 = ORIENTED_EDGE ( 'NONE', *, *, #772, .F. ) ;
#92 = CARTESIAN_POINT ( 'NONE',  ( -5.000000006556759580, -10.99999919928576553, -2.000000000000000000 ) ) ;
#93 = AXIS2_PLACEMENT_3D ( 'NONE', #270, #657, #1221 ) ;
#94 = CARTESIAN_POINT ( 'NONE',  ( -6.000000006556621024, 0.000000000000000000, 1.500000000000000000 ) ) ;
#95 = VERTEX_POINT ( 'NONE', #1154 ) ;
#96 = VERTEX_POINT ( 'NONE', #676 ) ;
#97 = AXIS2_PLACEMENT_3D ( 'NONE', #892, #1181, #615 ) ;
#98 = ORIENTED_EDGE ( 'NONE', *, *, #1186, .T. ) ;
#99 = CARTESIAN_POINT ( 'NONE',  ( 0.000000000000000000, 32.25355373135845127, 2.500000000000000000 ) ) ;
#100 = VECTOR ( 'NONE', #449, 1000.000000000000000 ) ;
#101 = VECTOR ( 'NONE', #1048, 1000.000000000000000 ) ;
#102 = CARTESIAN_POINT ( 'NONE',  ( 0.000000000000000000, -7.999999199285761975, 1.500000000000000000 ) ) ;
#103 = DIRECTION ( 'NONE',  ( -0.000000000000000000, -0.000000000000000000, -1.000000000000000000 ) ) ;
#104 = EDGE_LOOP ( 'NONE', ( #572, #671, #301, #392 ) ) ;
#105 = DIRECTION ( 'NONE',  ( 1.000000000000000000, 0.000000000000000000, 0.000000000000000000 ) ) ;
#106 = FACE_OUTER_BOUND ( 'NONE', #741, .T. ) ;
#107 = DIRECTION ( 'NONE',  ( -0.000000000000000000, -0.000000000000000000, -1.000000000000000000 ) ) ;
#108 = ORIENTED_EDGE ( 'NONE', *, *, #772, .T. ) ;
#109 = DIRECTION ( 'NONE',  ( -1.000000000000000000, -3.019409270141831298E-16, 0.000000000000000000 ) ) ;
#110 = EDGE_CURVE ( 'NONE', #191, #924, #283, .T. ) ;
#111 = EDGE_CURVE ( 'NONE', #551, #279, #1175, .T. ) ;
#112 = VECTOR ( 'NONE', #350, 1000.000000000000000 ) ;
#113 = FACE_OUTER_BOUND ( 'NONE', #828, .T. ) ;
#114 = FACE_OUTER_BOUND ( 'NONE', #747, .T. ) ;
#115 = VERTEX_POINT ( 'NONE', #687 ) ;
#116 = ADVANCED_FACE ( 'NONE', ( #322 ), #213, .F. ) ;
#117 = PLANE ( 'NONE',  #716 ) ;
#118 = VECTOR ( 'NONE', #715, 1000.000000000000000 ) ;
#119 = ADVANCED_FACE ( 'NONE', ( #499 ), #595, .T. ) ;
#120 = DIRECTION ( 'NONE',  ( 0.7071068428022514452, -0.7071067195708382602, 0.000000000000000000 ) ) ;
#121 = VERTEX_POINT ( 'NONE', #125 ) ;
#122 = LINE ( 'NONE', #8, #978 ) ;
#123 = DIRECTION ( 'NONE',  ( -0.7071068428022515562, 0.7071067195708381492, 0.000000000000000000 ) ) ;
#124 = ADVANCED_FACE ( 'NONE', ( #227, #992 ), #807, .F. ) ;
#125 = CARTESIAN_POINT ( 'NONE',  ( 22.37435120191929272, 32.25355373135845127, 2.500000000000000000 ) ) ;
#126 = EDGE_CURVE ( 'NONE', #171, #538, #706, .T. ) ;
#127 = VERTEX_POINT ( 'NONE', #1099 ) ;
#128 = CARTESIAN_POINT ( 'NONE',  ( 22.37435120191929272, 32.25355373135845127, 5.000000000000000888 ) ) ;
#129 = DIRECTION ( 'NONE',  ( 0.7071068430037938946, -0.7071067193692956998, 0.000000000000000000 ) ) ;
#130 = CARTESIAN_POINT ( 'NONE',  ( 24.49999999344351664, 39.90693907851730415, 5.000000000000000888 ) ) ;
#131 = ORIENTED_EDGE ( 'NONE', *, *, #489, .F. ) ;
#132 = CARTESIAN_POINT ( 'NONE',  ( 17.98096508659633486, 36.64693907851730614, 4.500000000000000888 ) ) ;
#133 = CARTESIAN_POINT ( 'NONE',  ( -20.00000000655676402, 38.14999962202330153, 1.500000000000000000 ) ) ;
#134 = DIRECTION ( 'NONE',  ( 1.000000000000000000, -0.000000000000000000, 0.000000000000000000 ) ) ;
#135 = CARTESIAN_POINT ( 'NONE',  ( 0.000000000000000000, 0.000000000000000000, 0.000000000000000000 ) ) ;
#136 = VECTOR ( 'NONE', #35, 1000.000000000000000 ) ;
#137 = ORIENTED_EDGE ( 'NONE', *, *, #1186, .F. ) ;
#138 = CARTESIAN_POINT ( 'NONE',  ( 24.49999999344351664, 32.25355373135845127, 5.000000000000000888 ) ) ;
#139 = DIRECTION ( 'NONE',  ( 0.000000000000000000, 0.000000000000000000, 1.000000000000000000 ) ) ;
#140 = ORIENTED_EDGE ( 'NONE', *, *, #426, .F. ) ;
#141 = CARTESIAN_POINT ( 'NONE',  ( 0.000000000000000000, -3.000000000000000000, 5.000000000000000888 ) ) ;
#142 = PRODUCT_CONTEXT ( 'NONE', #983, 'mechanical' ) ;
#143 = ORIENTED_EDGE ( 'NONE', *, *, #911, .T. ) ;
#144 = CARTESIAN_POINT ( 'NONE',  ( 29.61911841575428284, 29.61912359452680121, 5.000000000000000888 ) ) ;
#145 = CARTESIAN_POINT ( 'NONE',  ( 24.49999999344351664, 39.90693907851730415, 1.500000000000000000 ) ) ;
#146 = ORIENTED_EDGE ( 'NONE', *, *, #691, .F. ) ;
#147 = EDGE_CURVE ( 'NONE', #809, #487, #505, .T. ) ;
#148 = CARTESIAN_POINT ( 'NONE',  ( -17.87867947814998004, 19.64644316126092249, 2.500000000000000000 ) ) ;
#149 = ORIENTED_EDGE ( 'NONE', *, *, #18, .F. ) ;
#150 = LINE ( 'NONE', #1228, #1201 ) ;
#151 = ORIENTED_EDGE ( 'NONE', *, *, #410, .T. ) ;
#152 = LINE ( 'NONE', #625, #580 ) ;
#153 = VERTEX_POINT ( 'NONE', #884 ) ;
#154 = DIRECTION ( 'NONE',  ( -0.7071068428022515562, 0.7071067195708381492, -0.000000000000000000 ) ) ;
#155 = EDGE_CURVE ( 'NONE', #224, #1000, #1200, .T. ) ;
#156 = AXIS2_PLACEMENT_3D ( 'NONE', #910, #1098, #53 ) ;
#157 = ORIENTED_EDGE ( 'NONE', *, *, #205, .F. ) ;
#158 = DIRECTION ( 'NONE',  ( -0.000000000000000000, -0.000000000000000000, 1.000000000000000000 ) ) ;
#159 = AXIS2_PLACEMENT_3D ( 'NONE', #420, #225, #605 ) ;
#160 = DIRECTION ( 'NONE',  ( -1.000000000000000000, 0.000000000000000000, 0.000000000000000000 ) ) ;
#161 = EDGE_CURVE ( 'NONE', #45, #648, #22, .T. ) ;
#162 = CARTESIAN_POINT ( 'NONE',  ( -2.121320158712513670, -2.121320528406754669, 0.000000000000000000 ) ) ;
#163 = ADVANCED_FACE ( 'NONE', ( #26 ), #222, .F. ) ;
#164 = ORIENTED_EDGE ( 'NONE', *, *, #658, .F. ) ;
#165 = CARTESIAN_POINT ( 'NONE',  ( 22.37435120191929272, 32.25355373135845127, 4.500000000000000888 ) ) ;
#166 = ADVANCED_FACE ( 'NONE', ( #401 ), #1088, .F. ) ;
#167 = ORIENTED_EDGE ( 'NONE', *, *, #328, .F. ) ;
#168 = CARTESIAN_POINT ( 'NONE',  ( -0.1767766798927095651, -0.1767767107005628613, 2.500000000000000000 ) ) ;
#169 = LINE ( 'NONE', #333, #100 ) ;
#170 = ORIENTED_EDGE ( 'NONE', *, *, #29, .T. ) ;
#171 = VERTEX_POINT ( 'NONE', #1196 ) ;
#172 = CARTESIAN_POINT ( 'NONE',  ( 9.249999993443378088, -4.999999195312474498, 3.500000000000000000 ) ) ;
#173 = ORIENTED_EDGE ( 'NONE', *, *, #1133, .T. ) ;
#174 = DIRECTION ( 'NONE',  ( -1.000000000000000000, 0.000000000000000000, 0.000000000000000000 ) ) ;
#175 = DIRECTION ( 'NONE',  ( -2.952720847795061126E-16, 1.000000000000000000, 0.000000000000000000 ) ) ;
#176 = VERTEX_POINT ( 'NONE', #888 ) ;
#177 = ORIENTED_EDGE ( 'NONE', *, *, #440, .F. ) ;
#178 = FACE_OUTER_BOUND ( 'NONE', #797, .T. ) ;
#179 = EDGE_CURVE ( 'NONE', #96, #96, #594, .T. ) ;
#180 = LINE ( 'NONE', #726, #582 ) ;
#181 = VECTOR ( 'NONE', #230, 1000.000000000000000 ) ;
#182 = VECTOR ( 'NONE', #977, 1000.000000000000000 ) ;
#183 = DIRECTION ( 'NONE',  ( -0.000000000000000000, 0.000000000000000000, -1.000000000000000000 ) ) ;
#184 = EDGE_LOOP ( 'NONE', ( #1153, #1090, #186, #456, #852, #1236 ) ) ;
#185 = CARTESIAN_POINT ( 'NONE',  ( -0.1767766798927095651, -0.1767767107005628613, 3.500000000000000000 ) ) ;
#186 = ORIENTED_EDGE ( 'NONE', *, *, #155, .T. ) ;
#187 = CARTESIAN_POINT ( 'NONE',  ( 0.000000000000000000, -10.99999919928576553, -2.000000000000000000 ) ) ;
#188 = CARTESIAN_POINT ( 'NONE',  ( -0.1500000065566215179, 39.90693907851730415, 0.000000000000000000 ) ) ;
#189 = FACE_OUTER_BOUND ( 'NONE', #1059, .T. ) ;
#190 = DIRECTION ( 'NONE',  ( 0.000000000000000000, 0.000000000000000000, -1.000000000000000000 ) ) ;
#191 = VERTEX_POINT ( 'NONE', #980 ) ;
#192 = FACE_OUTER_BOUND ( 'NONE', #1230, .T. ) ;
#193 = MECHANICAL_DESIGN_GEOMETRIC_PRESENTATION_REPRESENTATION (  '', ( #548 ), #1245 ) ;
#194 = CARTESIAN_POINT ( 'NONE',  ( 24.49999999344351664, 32.25355373135845127, 2.500000000000001332 ) ) ;
#195 = ORIENTED_EDGE ( 'NONE', *, *, #918, .F. ) ;
#196 = CARTESIAN_POINT ( 'NONE',  ( 0.000000000000000000, -3.000000000000000000, 1.500000000000000000 ) ) ;
#197 = VECTOR ( 'NONE', #588, 1000.000000000000000 ) ;
#198 = ORIENTED_EDGE ( 'NONE', *, *, #1093, .T. ) ;
#199 = DIRECTION ( 'NONE',  ( -0.000000000000000000, 0.000000000000000000, 1.000000000000000000 ) ) ;
#200 = VECTOR ( 'NONE', #416, 1000.000000000000000 ) ;
#201 = VECTOR ( 'NONE', #1019, 1000.000000000000000 ) ;
#202 = EDGE_CURVE ( 'NONE', #656, #171, #1074, .T. ) ;
#203 = CARTESIAN_POINT ( 'NONE',  ( -20.00000000655676402, 39.90693907851730415, 5.000000000000000888 ) ) ;
#204 = DIRECTION ( 'NONE',  ( -1.000000000000000000, 0.000000000000000000, 0.000000000000000000 ) ) ;
#205 = EDGE_CURVE ( 'NONE', #656, #1127, #237, .T. ) ;
#206 = EDGE_LOOP ( 'NONE', ( #771, #477, #988, #269, #834, #1107, #354, #746 ) ) ;
#207 = CARTESIAN_POINT ( 'NONE',  ( -6.000000006556621024, -10.99999919928576553, -2.000000000000000000 ) ) ;
#208 = DIRECTION ( 'NONE',  ( 0.7071067195708382602, 0.7071068428022514452, -0.000000000000000000 ) ) ;
#209 = DIRECTION ( 'NONE',  ( 1.000000000000000000, 0.000000000000000000, -0.000000000000000000 ) ) ;
#210 = ORIENTED_EDGE ( 'NONE', *, *, #515, .T. ) ;
#211 = FACE_OUTER_BOUND ( 'NONE', #61, .T. ) ;
#212 = VECTOR ( 'NONE', #355, 1000.000000000000000 ) ;
#213 = PLANE ( 'NONE',  #859 ) ;
#214 = ORIENTED_EDGE ( 'NONE', *, *, #69, .F. ) ;
#215 = VECTOR ( 'NONE', #347, 1000.000000000000000 ) ;
#216 = CARTESIAN_POINT ( 'NONE',  ( 18.60355307181104578, 38.14999962202331574, 3.500000000000000000 ) ) ;
#217 = ADVANCED_FACE ( 'NONE', ( #113 ), #876, .F. ) ;
#218 = LINE ( 'NONE', #663, #995 ) ;
#219 = EDGE_CURVE ( 'NONE', #176, #363, #783, .T. ) ;
#220 = VECTOR ( 'NONE', #822, 1000.000000000000000 ) ;
#221 = VECTOR ( 'NONE', #704, 1000.000000000000114 ) ;
#222 = PLANE ( 'NONE',  #1038 ) ;
#223 = SURFACE_STYLE_USAGE ( .BOTH. , #318 ) ;
#224 = VERTEX_POINT ( 'NONE', #1106 ) ;
#225 = DIRECTION ( 'NONE',  ( -0.000000000000000000, -0.000000000000000000, 1.000000000000000000 ) ) ;
#226 = CARTESIAN_POINT ( 'NONE',  ( 18.64999999344338022, -9.999999199285763751, -2.000000000000000000 ) ) ;
#227 = FACE_OUTER_BOUND ( 'NONE', #1129, .T. ) ;
#228 = ORIENTED_EDGE ( 'NONE', *, *, #815, .T. ) ;
#229 = DIRECTION ( 'NONE',  ( -0.7071068430037945607, 0.7071067193692950337, 0.000000000000000000 ) ) ;
#230 = DIRECTION ( 'NONE',  ( 0.000000000000000000, 0.000000000000000000, -1.000000000000000000 ) ) ;
#231 = DIRECTION ( 'NONE',  ( 0.000000000000000000, -0.000000000000000000, 1.000000000000000000 ) ) ;
#232 = ORIENTED_EDGE ( 'NONE', *, *, #202, .T. ) ;
#233 = FACE_OUTER_BOUND ( 'NONE', #1047, .T. ) ;
#234 = EDGE_CURVE ( 'NONE', #944, #323, #745, .T. ) ;
#235 = CARTESIAN_POINT ( 'NONE',  ( 17.98096508659633486, 36.64693907851730614, 2.500000000000000000 ) ) ;
#236 = AXIS2_PLACEMENT_3D ( 'NONE', #395, #986, #33 ) ;
#237 = LINE ( 'NONE', #44, #778 ) ;
#238 = FILL_AREA_STYLE ('',( #760 ) ) ;
#239 = VECTOR ( 'NONE', #247, 1000.000000000000000 ) ;
#240 = EDGE_LOOP ( 'NONE', ( #371, #1147, #13, #1207 ) ) ;
#241 = CARTESIAN_POINT ( 'NONE',  ( -20.00000000655676402, 38.14999962202330153, 2.500000000000000000 ) ) ;
#242 = EDGE_CURVE ( 'NONE', #785, #463, #267, .T. ) ;
#243 = DIRECTION ( 'NONE',  ( 1.000000000000000000, 0.000000000000000000, 0.000000000000000000 ) ) ;
#244 = LINE ( 'NONE', #162, #253 ) ;
#245 = ORIENTED_EDGE ( 'NONE', *, *, #126, .F. ) ;
#246 = DIRECTION ( 'NONE',  ( 0.000000000000000000, -0.000000000000000000, 1.000000000000000000 ) ) ;
#247 = DIRECTION ( 'NONE',  ( -1.000000000000000000, 9.435133370773131168E-18, 0.000000000000000000 ) ) ;
#248 = DIRECTION ( 'NONE',  ( -0.000000000000000000, 0.000000000000000000, 1.000000000000000000 ) ) ;
#249 = VECTOR ( 'NONE', #1172, 1000.000000000000000 ) ;
#250 = ORIENTED_EDGE ( 'NONE', *, *, #179, .T. ) ;
#251 = CARTESIAN_POINT ( 'NONE',  ( 0.000000000000000000, 0.000000000000000000, -2.000000000000000000 ) ) ;
#252 = CARTESIAN_POINT ( 'NONE',  ( 24.49999999344351664, 39.90693907851730415, 5.000000000000000888 ) ) ;
#253 = VECTOR ( 'NONE', #827, 1000.000000000000114 ) ;
#254 = CARTESIAN_POINT ( 'NONE',  ( 24.49999999344351664, -10.99999919928576553, 5.000000000000000888 ) ) ;
#255 = VECTOR ( 'NONE', #793, 1000.000000000000114 ) ;
#256 = ORIENTED_EDGE ( 'NONE', *, *, #662, .T. ) ;
#257 = CARTESIAN_POINT ( 'NONE',  ( 0.5177668891612171587, 1.250000000000000222, 5.000000000000000888 ) ) ;
#258 = AXIS2_PLACEMENT_3D ( 'NONE', #464, #1138, #853 ) ;
#259 = ORIENTED_EDGE ( 'NONE', *, *, #691, .T. ) ;
#260 = LINE ( 'NONE', #641, #1043 ) ;
#261 = LINE ( 'NONE', #1005, #432 ) ;
#262 = EDGE_LOOP ( 'NONE', ( #84, #673, #695, #941, #567, #80, #1055, #842, #879, #504, #1214 ) ) ;
#263 = ORIENTED_EDGE ( 'NONE', *, *, #593, .F. ) ;
#264 = CARTESIAN_POINT ( 'NONE',  ( -6.000000006556621024, 39.90693907851730415, 40.63730413511096629 ) ) ;
#265 = LINE ( 'NONE', #71, #1085 ) ;
#266 = EDGE_CURVE ( 'NONE', #285, #51, #926, .T. ) ;
#267 = LINE ( 'NONE', #1027, #215 ) ;
#268 = ORIENTED_EDGE ( 'NONE', *, *, #308, .T. ) ;
#269 = ORIENTED_EDGE ( 'NONE', *, *, #155, .F. ) ;
#270 = CARTESIAN_POINT ( 'NONE',  ( 0.000000000000000000, 0.000000000000000000, 1.500000000000000000 ) ) ;
#271 = VECTOR ( 'NONE', #934, 1000.000000000000000 ) ;
#272 = EDGE_CURVE ( 'NONE', #437, #176, #1132, .T. ) ;
#273 = FACE_OUTER_BOUND ( 'NONE', #816, .T. ) ;
#274 = DIRECTION ( 'NONE',  ( -1.000000000000000000, -2.952720847795061126E-16, 0.000000000000000000 ) ) ;
#275 = ORIENTED_EDGE ( 'NONE', *, *, #1209, .F. ) ;
#276 = EDGE_LOOP ( 'NONE', ( #526 ) ) ;
#277 = PLANE ( 'NONE',  #93 ) ;
#278 = EDGE_CURVE ( 'NONE', #549, #224, #244, .T. ) ;
#279 = VERTEX_POINT ( 'NONE', #1218 ) ;
#280 = CARTESIAN_POINT ( 'NONE',  ( 24.49999999344351664, -0.2500000000000002220, 2.500000000000000000 ) ) ;
#281 = VECTOR ( 'NONE', #541, 1000.000000000000000 ) ;
#282 = DIRECTION ( 'NONE',  ( 1.000000000000000000, 0.000000000000000000, -0.000000000000000000 ) ) ;
#283 = LINE ( 'NONE', #664, #654 ) ;
#284 = DIRECTION ( 'NONE',  ( 1.000000000000000000, -0.000000000000000000, 0.000000000000000000 ) ) ;
#285 = VERTEX_POINT ( 'NONE', #148 ) ;
#286 = DIRECTION ( 'NONE',  ( -1.000000000000000000, 0.000000000000000000, 0.000000000000000000 ) ) ;
#287 = DIRECTION ( 'NONE',  ( -0.000000000000000000, -0.000000000000000000, 1.000000000000000000 ) ) ;
#288 = ORIENTED_EDGE ( 'NONE', *, *, #776, .F. ) ;
#289 = LINE ( 'NONE', #966, #692 ) ;
#290 = DIRECTION ( 'NONE',  ( 0.000000000000000000, 0.000000000000000000, 1.000000000000000000 ) ) ;
#291 = EDGE_LOOP ( 'NONE', ( #1120, #422, #972, #259 ) ) ;
#292 = SURFACE_SIDE_STYLE ('',( #858 ) ) ;
#293 = ADVANCED_FACE ( 'NONE', ( #730 ), #542, .F. ) ;
#294 = EDGE_CURVE ( 'NONE', #83, #1167, #833, .T. ) ;
#295 = LINE ( 'NONE', #102, #197 ) ;
#296 = LINE ( 'NONE', #867, #31 ) ;
#297 = EDGE_LOOP ( 'NONE', ( #1025, #306, #927, #562 ) ) ;
#298 = LINE ( 'NONE', #99, #1232 ) ;
#299 = APPLICATION_CONTEXT ( 'automotive_design' ) ;
#300 = AXIS2_PLACEMENT_3D ( 'NONE', #965, #957, #686 ) ;
#301 = ORIENTED_EDGE ( 'NONE', *, *, #1149, .F. ) ;
#302 = CARTESIAN_POINT ( 'NONE',  ( -6.000000006556621024, -10.99999919928576553, 5.000000000000000888 ) ) ;
#303 = VERTEX_POINT ( 'NONE', #340 ) ;
#304 = FACE_OUTER_BOUND ( 'NONE', #206, .T. ) ;
#305 = DIRECTION ( 'NONE',  ( -0.000000000000000000, -0.000000000000000000, 1.000000000000000000 ) ) ;
#306 = ORIENTED_EDGE ( 'NONE', *, *, #939, .F. ) ;
#307 = DIRECTION ( 'NONE',  ( -0.000000000000000000, 0.000000000000000000, -1.000000000000000000 ) ) ;
#308 = EDGE_CURVE ( 'NONE', #954, #191, #66, .T. ) ;
#309 = CARTESIAN_POINT ( 'NONE',  ( 4.395877702158426104, -3.000000000000000000, 1.500000000000000000 ) ) ;
#310 = AXIS2_PLACEMENT_3D ( 'NONE', #251, #552, #1121 ) ;
#311 = DIRECTION ( 'NONE',  ( -0.000000000000000000, -0.000000000000000000, -1.000000000000000000 ) ) ;
#312 = VERTEX_POINT ( 'NONE', #352 ) ;
#313 = VECTOR ( 'NONE', #779, 1000.000000000000000 ) ;
#314 = LINE ( 'NONE', #1097, #1152 ) ;
#315 = LINE ( 'NONE', #1109, #239 ) ;
#316 = COLOUR_RGB ( '',0.7921568627450980005, 0.8196078431372548767, 0.9333333333333333481 ) ;
#317 = CARTESIAN_POINT ( 'NONE',  ( -0.1500000065566215457, -9.999999199285763751, -2.000000000000000000 ) ) ;
#318 = SURFACE_SIDE_STYLE ('',( #694 ) ) ;
#319 = ORIENTED_EDGE ( 'NONE', *, *, #812, .T. ) ;
#320 = LINE ( 'NONE', #721, #1 ) ;
#321 = DIRECTION ( 'NONE',  ( 1.000000000000000000, 0.000000000000000000, 0.000000000000000000 ) ) ;
#322 = FACE_OUTER_BOUND ( 'NONE', #981, .T. ) ;
#323 = VERTEX_POINT ( 'NONE', #626 ) ;
#324 = PLANE ( 'NONE',  #680 ) ;
#325 = CARTESIAN_POINT ( 'NONE',  ( 24.49999999344351664, -0.2500000000000002220, 1.500000000000000000 ) ) ;
#326 = VERTEX_POINT ( 'NONE', #254 ) ;
#327 = DIRECTION ( 'NONE',  ( 0.000000000000000000, 0.000000000000000000, 1.000000000000000000 ) ) ;
#328 = EDGE_CURVE ( 'NONE', #727, #1235, #1022, .T. ) ;
#329 = ORIENTED_EDGE ( 'NONE', *, *, #360, .T. ) ;
#330 = DIRECTION ( 'NONE',  ( 0.7071067193692950337, 0.7071068430037945607, -0.000000000000000000 ) ) ;
#331 = DIRECTION ( 'NONE',  ( 0.000000000000000000, -1.000000000000000000, 0.000000000000000000 ) ) ;
#332 = VECTOR ( 'NONE', #406, 1000.000000000000000 ) ;
#333 = CARTESIAN_POINT ( 'NONE',  ( -6.000000006556621024, -7.999999199285761975, 3.500000000000000000 ) ) ;
#334 = VECTOR ( 'NONE', #1239, 1000.000000000000000 ) ;
#335 = EDGE_LOOP ( 'NONE', ( #724 ) ) ;
#336 = VECTOR ( 'NONE', #798, 1000.000000000000000 ) ;
#337 = ORIENTED_EDGE ( 'NONE', *, *, #1229, .F. ) ;
#338 = FACE_OUTER_BOUND ( 'NONE', #578, .T. ) ;
#339 = LINE ( 'NONE', #509, #1082 ) ;
#340 = CARTESIAN_POINT ( 'NONE',  ( 18.60355307181104578, 38.14999962202331574, 2.500000000000000000 ) ) ;
#341 = VERTEX_POINT ( 'NONE', #444 ) ;
#342 = DIRECTION ( 'NONE',  ( 0.000000000000000000, -1.000000000000000000, 0.000000000000000000 ) ) ;
#343 = ORIENTED_EDGE ( 'NONE', *, *, #825, .T. ) ;
#344 = DIRECTION ( 'NONE',  ( -0.000000000000000000, -0.000000000000000000, -1.000000000000000000 ) ) ;
#345 = ORIENTED_EDGE ( 'NONE', *, *, #735, .T. ) ;
#346 = EDGE_CURVE ( 'NONE', #1127, #1034, #261, .T. ) ;
#347 = DIRECTION ( 'NONE',  ( 1.000000000000000000, -0.000000000000000000, -0.000000000000000000 ) ) ;
#348 = EDGE_LOOP ( 'NONE', ( #1070, #268, #1163, #720 ) ) ;
#349 = ORIENTED_EDGE ( 'NONE', *, *, #681, .F. ) ;
#350 = DIRECTION ( 'NONE',  ( 0.000000000000000000, -1.000000000000000000, 0.000000000000000000 ) ) ;
#351 = LINE ( 'NONE', #661, #101 ) ;
#352 = CARTESIAN_POINT ( 'NONE',  ( -20.00000000655676757, 15.75735620362123868, 5.000000000000000888 ) ) ;
#353 = VECTOR ( 'NONE', #631, 1000.000000000000000 ) ;
#354 = ORIENTED_EDGE ( 'NONE', *, *, #1174, .F. ) ;
#355 = DIRECTION ( 'NONE',  ( -0.000000000000000000, -0.000000000000000000, -1.000000000000000000 ) ) ;
#356 = VECTOR ( 'NONE', #792, 1000.000000000000114 ) ;
#357 = LINE ( 'NONE', #168, #840 ) ;
#358 = PLANE ( 'NONE',  #475 ) ;
#359 = ORIENTED_EDGE ( 'NONE', *, *, #161, .T. ) ;
#360 = EDGE_CURVE ( 'NONE', #757, #51, #1225, .T. ) ;
#361 = ORIENTED_EDGE ( 'NONE', *, *, #63, .F. ) ;
#362 = DIRECTION ( 'NONE',  ( 1.000000000000000000, 0.000000000000000000, 0.000000000000000000 ) ) ;
#363 = VERTEX_POINT ( 'NONE', #738 ) ;
#364 = LINE ( 'NONE', #560, #997 ) ;
#365 = LINE ( 'NONE', #1032, #1081 ) ;
#366 = EDGE_CURVE ( 'NONE', #803, #51, #49, .T. ) ;
#367 = ORIENTED_EDGE ( 'NONE', *, *, #569, .F. ) ;
#368 = CIRCLE ( 'NONE', #1115, 5.250000000000000888 ) ;
#369 = FACE_OUTER_BOUND ( 'NONE', #864, .T. ) ;
#370 = EDGE_CURVE ( 'NONE', #985, #1135, #1206, .T. ) ;
#371 = ORIENTED_EDGE ( 'NONE', *, *, #1194, .T. ) ;
#372 = CARTESIAN_POINT ( 'NONE',  ( 0.000000000000000000, 0.000000000000000000, 1.500000000000000000 ) ) ;
#373 = LINE ( 'NONE', #758, #79 ) ;
#374 = LINE ( 'NONE', #961, #555 ) ;
#375 = VECTOR ( 'NONE', #404, 1000.000000000000000 ) ;
#376 = ORIENTED_EDGE ( 'NONE', *, *, #946, .T. ) ;
#377 = STYLED_ITEM ( 'NONE', ( #973 ), #841 ) ;
#378 = DIRECTION ( 'NONE',  ( 1.000000000000000000, 0.000000000000000000, 0.000000000000000000 ) ) ;
#379 = ORIENTED_EDGE ( 'NONE', *, *, #815, .F. ) ;
#380 = DIRECTION ( 'NONE',  ( 0.000000000000000000, -1.000000000000000000, 0.000000000000000000 ) ) ;
#381 = ADVANCED_FACE ( 'NONE', ( #1213 ), #358, .T. ) ;
#382 = ORIENTED_EDGE ( 'NONE', *, *, #18, .T. ) ;
#383 = CARTESIAN_POINT ( 'NONE',  ( 0.5177668891612171587, 1.250000000000000222, 5.000000000000000888 ) ) ;
#384 = EDGE_CURVE ( 'NONE', #954, #127, #169, .T. ) ;
#385 = CARTESIAN_POINT ( 'NONE',  ( -17.87867947814998004, 19.64644316126092249, 5.000000000000000888 ) ) ;
#386 = ORIENTED_EDGE ( 'NONE', *, *, #147, .F. ) ;
#387 = LINE ( 'NONE', #770, #182 ) ;
#388 =( GEOMETRIC_REPRESENTATION_CONTEXT ( 3 ) GLOBAL_UNCERTAINTY_ASSIGNED_CONTEXT ( ( #1036 ) ) GLOBAL_UNIT_ASSIGNED_CONTEXT ( ( #10, #683, #1249 ) ) REPRESENTATION_CONTEXT ( 'NONE', 'WORKASPACE' ) );
#389 = CARTESIAN_POINT ( 'NONE',  ( 4.395877702158426104, -3.000000000000000000, 5.000000000000000888 ) ) ;
#390 = LINE ( 'NONE', #768, #790 ) ;
#391 = VECTOR ( 'NONE', #1112, 1000.000000000000000 ) ;
#392 = ORIENTED_EDGE ( 'NONE', *, *, #545, .T. ) ;
#393 = CARTESIAN_POINT ( 'NONE',  ( -0.1035533778322433457, -0.2500000000000000000, 3.500000000000000000 ) ) ;
#394 = VECTOR ( 'NONE', #624, 1000.000000000000000 ) ;
#395 = CARTESIAN_POINT ( 'NONE',  ( 0.000000000000000000, 0.000000000000000000, 0.000000000000000000 ) ) ;
#396 = PLANE ( 'NONE',  #405 ) ;
#397 = EDGE_CURVE ( 'NONE', #557, #1251, #547, .T. ) ;
#398 = ORIENTED_EDGE ( 'NONE', *, *, #1176, .T. ) ;
#399 = DIRECTION ( 'NONE',  ( 0.000000000000000000, 0.000000000000000000, -1.000000000000000000 ) ) ;
#400 = CARTESIAN_POINT ( 'NONE',  ( -0.1500000065566215457, 39.90693907851730415, -2.000000000000000000 ) ) ;
#401 = FACE_OUTER_BOUND ( 'NONE', #297, .T. ) ;
#402 = EDGE_LOOP ( 'NONE', ( #707, #1219, #256, #376 ) ) ;
#403 = CARTESIAN_POINT ( 'NONE',  ( 24.49999999344351664, -7.999999199285761975, 1.500000000000000000 ) ) ;
#404 = DIRECTION ( 'NONE',  ( 0.000000000000000000, 1.000000000000000000, 0.000000000000000000 ) ) ;
#405 = AXIS2_PLACEMENT_3D ( 'NONE', #877, #23, #955 ) ;
#406 = DIRECTION ( 'NONE',  ( 0.000000000000000000, -0.000000000000000000, 1.000000000000000000 ) ) ;
#407 = ORIENTED_EDGE ( 'NONE', *, *, #946, .F. ) ;
#408 = CARTESIAN_POINT ( 'NONE',  ( -6.000000006556621024, -7.999999199285761975, 5.000000000000000888 ) ) ;
#409 = PLANE ( 'NONE',  #156 ) ;
#410 = EDGE_CURVE ( 'NONE', #341, #1034, #1015, .T. ) ;
#411 = AXIS2_PLACEMENT_3D ( 'NONE', #556, #940, #576 ) ;
#412 = VECTOR ( 'NONE', #307, 1000.000000000000000 ) ;
#413 = CARTESIAN_POINT ( 'NONE',  ( 9.249999993443383417, -4.999999195312474498, 3.500000000000000000 ) ) ;
#414 = VERTEX_POINT ( 'NONE', #309 ) ;
#415 = DIRECTION ( 'NONE',  ( -0.7071068430037940056, 0.7071067193692956998, 0.000000000000000000 ) ) ;
#416 = DIRECTION ( 'NONE',  ( 0.000000000000000000, 1.000000000000000000, 0.000000000000000000 ) ) ;
#417 = ADVANCED_FACE ( 'NONE', ( #561 ), #1151, .F. ) ;
#418 = CARTESIAN_POINT ( 'NONE',  ( -5.000000006556759580, 39.90693907851730415, 0.000000000000000000 ) ) ;
#419 = ORIENTED_EDGE ( 'NONE', *, *, #647, .T. ) ;
#420 = CARTESIAN_POINT ( 'NONE',  ( 9.249999993443383417, -4.999999195312474498, 1.500000000000000000 ) ) ;
#421 = CARTESIAN_POINT ( 'NONE',  ( 0.000000000000000000, 0.000000000000000000, 5.000000000000000888 ) ) ;
#422 = ORIENTED_EDGE ( 'NONE', *, *, #242, .T. ) ;
#423 = VECTOR ( 'NONE', #209, 1000.000000000000000 ) ;
#424 = CARTESIAN_POINT ( 'NONE',  ( 19.33130113298448904, 39.90693907851730415, 3.500000000000000000 ) ) ;
#425 = VERTEX_POINT ( 'NONE', #752 ) ;
#426 = EDGE_CURVE ( 'NONE', #1167, #809, #25, .T. ) ;
#427 = VERTEX_POINT ( 'NONE', #1049 ) ;
#428 = PLANE ( 'NONE',  #600 ) ;
#429 = FACE_OUTER_BOUND ( 'NONE', #953, .T. ) ;
#430 = EDGE_CURVE ( 'NONE', #95, #285, #690, .T. ) ;
#431 = CARTESIAN_POINT ( 'NONE',  ( -20.00000000655676402, 39.90693907851730415, 2.500000000000000000 ) ) ;
#432 = VECTOR ( 'NONE', #55, 1000.000000000000114 ) ;
#433 = VECTOR ( 'NONE', #174, 1000.000000000000000 ) ;
#434 = EDGE_LOOP ( 'NONE', ( #688, #627, #1033, #929 ) ) ;
#435 = FACE_BOUND ( 'NONE', #276, .T. ) ;
#436 = EDGE_CURVE ( 'NONE', #363, #1235, #503, .T. ) ;
#437 = VERTEX_POINT ( 'NONE', #887 ) ;
#438 = CARTESIAN_POINT ( 'NONE',  ( 24.49999999344351664, 34.73824112178238011, -2.000000000000000000 ) ) ;
#439 = DIRECTION ( 'NONE',  ( 1.000000000000000000, -0.000000000000000000, 0.000000000000000000 ) ) ;
#440 = EDGE_CURVE ( 'NONE', #312, #757, #218, .T. ) ;
#441 = EDGE_LOOP ( 'NONE', ( #976 ) ) ;
#442 = DIRECTION ( 'NONE',  ( -0.000000000000000000, 0.000000000000000000, 1.000000000000000000 ) ) ;
#443 = DIRECTION ( 'NONE',  ( 1.000000000000000000, -0.000000000000000000, 0.000000000000000000 ) ) ;
#444 = CARTESIAN_POINT ( 'NONE',  ( 24.49999999344351664, -0.2500000000000000000, 1.500000000000000000 ) ) ;
#445 = ORIENTED_EDGE ( 'NONE', *, *, #294, .F. ) ;
#446 = LINE ( 'NONE', #264, #212 ) ;
#447 = DIRECTION ( 'NONE',  ( 0.7071068430037945607, -0.7071067193692950337, 0.000000000000000000 ) ) ;
#448 = EDGE_CURVE ( 'NONE', #303, #450, #860, .T. ) ;
#449 = DIRECTION ( 'NONE',  ( 0.000000000000000000, 0.000000000000000000, -1.000000000000000000 ) ) ;
#450 = VERTEX_POINT ( 'NONE', #194 ) ;
#451 = AXIS2_PLACEMENT_3D ( 'NONE', #947, #282, #183 ) ;
#452 = VERTEX_POINT ( 'NONE', #82 ) ;
#453 = FACE_OUTER_BOUND ( 'NONE', #731, .T. ) ;
#454 = AXIS2_PLACEMENT_3D ( 'NONE', #1164, #874, #763 ) ;
#455 = EDGE_CURVE ( 'NONE', #517, #678, #365, .T. ) ;
#456 = ORIENTED_EDGE ( 'NONE', *, *, #6, .T. ) ;
#457 = DIRECTION ( 'NONE',  ( 1.000000000000000000, 0.000000000000000000, 0.000000000000000000 ) ) ;
#458 = ADVANCED_FACE ( 'NONE', ( #1140 ), #1184, .F. ) ;
#459 = DIRECTION ( 'NONE',  ( 1.000000000000000000, 0.000000000000000000, -0.000000000000000000 ) ) ;
#460 = EDGE_LOOP ( 'NONE', ( #91, #1197, #596, #75 ) ) ;
#461 = DIRECTION ( 'NONE',  ( 1.000000000000000000, -9.435133370773131168E-18, 0.000000000000000000 ) ) ;
#462 = LINE ( 'NONE', #1018, #50 ) ;
#463 = VERTEX_POINT ( 'NONE', #400 ) ;
#464 = CARTESIAN_POINT ( 'NONE',  ( 0.000000000000000000, 0.000000000000000000, 5.000000000000000888 ) ) ;
#465 = LINE ( 'NONE', #854, #1102 ) ;
#466 = ORIENTED_EDGE ( 'NONE', *, *, #512, .F. ) ;
#467 = DIRECTION ( 'NONE',  ( -9.435133370773131168E-18, -1.000000000000000000, 0.000000000000000000 ) ) ;
#468 = CARTESIAN_POINT ( 'NONE',  ( 24.49999999344351664, 1.250000000000000000, 2.500000000000000000 ) ) ;
#469 = ORIENTED_EDGE ( 'NONE', *, *, #455, .T. ) ;
#470 = LINE ( 'NONE', #187, #81 ) ;
#471 = ADVANCED_FACE ( 'NONE', ( #952 ), #655, .T. ) ;
#472 = CARTESIAN_POINT ( 'NONE',  ( 24.49999999344351664, 1.250000000000000000, 4.500000000000000888 ) ) ;
#473 = CARTESIAN_POINT ( 'NONE',  ( 24.49999999344351664, 34.73824112178238011, 1.500000000000000000 ) ) ;
#474 = VERTEX_POINT ( 'NONE', #1058 ) ;
#475 = AXIS2_PLACEMENT_3D ( 'NONE', #839, #813, #723 ) ;
#476 = ADVANCED_FACE ( 'NONE', ( #2 ), #1042, .F. ) ;
#477 = ORIENTED_EDGE ( 'NONE', *, *, #384, .T. ) ;
#478 = FILL_AREA_STYLE_COLOUR ( '', #316 ) ;
#479 = AXIS2_PLACEMENT_3D ( 'NONE', #1024, #342, #742 ) ;
#480 = ORIENTED_EDGE ( 'NONE', *, *, #234, .F. ) ;
#481 = PLANE ( 'NONE',  #74 ) ;
#482 = UNCERTAINTY_MEASURE_WITH_UNIT (LENGTH_MEASURE( 1.000000000000000082E-05 ), #674, 'distance_accuracy_value', 'NONE');
#483 = ORIENTED_EDGE ( 'NONE', *, *, #328, .T. ) ;
#484 = CARTESIAN_POINT ( 'NONE',  ( -1.242640533986918205, -3.000000000000000000, 1.500000000000000000 ) ) ;
#485 = CARTESIAN_POINT ( 'NONE',  ( -20.00000000655676757, 36.64693907851729193, 5.000000000000000888 ) ) ;
#486 = CARTESIAN_POINT ( 'NONE',  ( 12.49999999344338519, -4.999999195312474498, 5.000000000000000888 ) ) ;
#487 = VERTEX_POINT ( 'NONE', #188 ) ;
#488 = DIRECTION ( 'NONE',  ( -0.000000000000000000, -0.000000000000000000, -1.000000000000000000 ) ) ;
#489 = EDGE_CURVE ( 'NONE', #153, #15, #465, .T. ) ;
#490 = VECTOR ( 'NONE', #829, 1000.000000000000000 ) ;
#491 = EDGE_CURVE ( 'NONE', #127, #924, #373, .T. ) ;
#492 = DIRECTION ( 'NONE',  ( 0.000000000000000000, 0.000000000000000000, -1.000000000000000000 ) ) ;
#493 = ORIENTED_EDGE ( 'NONE', *, *, #777, .F. ) ;
#494 =( NAMED_UNIT ( * ) PLANE_ANGLE_UNIT ( ) SI_UNIT ( $, .RADIAN. ) );
#495 = AXIS2_PLACEMENT_3D ( 'NONE', #1002, #630, #998 ) ;
#496 = CARTESIAN_POINT ( 'NONE',  ( -5.000000006556759580, 6.767765934106275694, 4.500000000000000888 ) ) ;
#497 = AXIS2_PLACEMENT_3D ( 'NONE', #1108, #46, #42 ) ;
#498 = EDGE_CURVE ( 'NONE', #127, #1000, #566, .T. ) ;
#499 = FACE_OUTER_BOUND ( 'NONE', #402, .T. ) ;
#500 =( LENGTH_UNIT ( ) NAMED_UNIT ( * ) SI_UNIT ( .MILLI., .METRE. ) );
#501 = ORIENTED_EDGE ( 'NONE', *, *, #545, .F. ) ;
#502 = DIRECTION ( 'NONE',  ( 1.000000000000000000, 0.000000000000000000, 0.000000000000000000 ) ) ;
#503 = LINE ( 'NONE', #472, #334 ) ;
#504 = ORIENTED_EDGE ( 'NONE', *, *, #550, .F. ) ;
#505 = LINE ( 'NONE', #418, #1060 ) ;
#506 = ORIENTED_EDGE ( 'NONE', *, *, #1072, .F. ) ;
#507 = LINE ( 'NONE', #1001, #536 ) ;
#508 = EDGE_CURVE ( 'NONE', #474, #474, #1210, .T. ) ;
#509 = CARTESIAN_POINT ( 'NONE',  ( 0.000000000000000000, -3.000000000000000000, 1.500000000000000000 ) ) ;
#510 = ADVANCED_FACE ( 'NONE', ( #974 ), #117, .F. ) ;
#511 = CARTESIAN_POINT ( 'NONE',  ( 24.49999999344351664, 32.25355373135845127, -38.97453771266959421 ) ) ;
#512 = EDGE_CURVE ( 'NONE', #487, #279, #43, .T. ) ;
#513 = ORIENTED_EDGE ( 'NONE', *, *, #755, .T. ) ;
#514 = FACE_OUTER_BOUND ( 'NONE', #291, .T. ) ;
#515 = EDGE_CURVE ( 'NONE', #427, #628, #1092, .T. ) ;
#516 = LINE ( 'NONE', #903, #1041 ) ;
#517 = VERTEX_POINT ( 'NONE', #438 ) ;
#518 = VECTOR ( 'NONE', #30, 1000.000000000000000 ) ;
#519 = AXIS2_PLACEMENT_3D ( 'NONE', #1208, #810, #703 ) ;
#520 = CARTESIAN_POINT ( 'NONE',  ( 9.249999993443383417, -4.999999195312474498, 0.000000000000000000 ) ) ;
#521 = ORIENTED_EDGE ( 'NONE', *, *, #63, .T. ) ;
#522 = FACE_OUTER_BOUND ( 'NONE', #1013, .T. ) ;
#523 = LINE ( 'NONE', #709, #736 ) ;
#524 = EDGE_CURVE ( 'NONE', #34, #67, #152, .T. ) ;
#525 = DIRECTION ( 'NONE',  ( 1.000000000000000000, 0.000000000000000000, 0.000000000000000000 ) ) ;
#526 = ORIENTED_EDGE ( 'NONE', *, *, #508, .F. ) ;
#527 = LINE ( 'NONE', #886, #1062 ) ;
#528 = CARTESIAN_POINT ( 'NONE',  ( -20.00000000655676757, 36.64693907851729193, 4.500000000000000888 ) ) ;
#529 = ORIENTED_EDGE ( 'NONE', *, *, #111, .T. ) ;
#530 = CARTESIAN_POINT ( 'NONE',  ( 0.000000000000000000, -3.000000000000000000, 3.500000000000000000 ) ) ;
#531 = EDGE_LOOP ( 'NONE', ( #382, #3, #4, #749 ) ) ;
#532 = LINE ( 'NONE', #57, #112 ) ;
#533 = VECTOR ( 'NONE', #439, 1000.000000000000000 ) ;
#534 = CARTESIAN_POINT ( 'NONE',  ( -6.000000006556621024, -10.99999919928576553, -2.000000000000000000 ) ) ;
#535 = DIRECTION ( 'NONE',  ( -0.000000000000000000, -0.000000000000000000, 1.000000000000000000 ) ) ;
#536 = VECTOR ( 'NONE', #1183, 1000.000000000000000 ) ;
#537 = AXIS2_PLACEMENT_3D ( 'NONE', #1158, #667, #1066 ) ;
#538 = VERTEX_POINT ( 'NONE', #1204 ) ;
#539 = DIRECTION ( 'NONE',  ( -1.000000000000000000, 9.435133370773131168E-18, -0.000000000000000000 ) ) ;
#540 = ORIENTED_EDGE ( 'NONE', *, *, #1128, .T. ) ;
#541 = DIRECTION ( 'NONE',  ( 0.000000000000000000, 1.000000000000000000, -0.000000000000000000 ) ) ;
#542 = PLANE ( 'NONE',  #1017 ) ;
#543 = ORIENTED_EDGE ( 'NONE', *, *, #569, .T. ) ;
#544 = PLANE ( 'NONE',  #310 ) ;
#545 = EDGE_CURVE ( 'NONE', #463, #487, #516, .T. ) ;
#546 = CARTESIAN_POINT ( 'NONE',  ( 9.249999993443378088, -4.999999195312474498, 3.500000000000000000 ) ) ;
#547 = LINE ( 'NONE', #718, #799 ) ;
#548 = STYLED_ITEM ( 'NONE', ( #907 ), #1087 ) ;
#549 = VERTEX_POINT ( 'NONE', #801 ) ;
#550 = EDGE_CURVE ( 'NONE', #67, #323, #984, .T. ) ;
#551 = VERTEX_POINT ( 'NONE', #1199 ) ;
#552 = DIRECTION ( 'NONE',  ( 0.000000000000000000, 0.000000000000000000, -1.000000000000000000 ) ) ;
#553 = DIRECTION ( 'NONE',  ( -1.000000000000000000, 0.000000000000000000, 0.000000000000000000 ) ) ;
#554 = EDGE_CURVE ( 'NONE', #727, #341, #805, .T. ) ;
#555 = VECTOR ( 'NONE', #583, 1000.000000000000000 ) ;
#556 = CARTESIAN_POINT ( 'NONE',  ( 0.000000000000000000, -0.2500000000000000000, 3.500000000000000000 ) ) ;
#557 = VERTEX_POINT ( 'NONE', #534 ) ;
#558 = DIRECTION ( 'NONE',  ( 0.000000000000000000, -0.000000000000000000, 1.000000000000000000 ) ) ;
#559 = VECTOR ( 'NONE', #65, 1000.000000000000000 ) ;
#560 = CARTESIAN_POINT ( 'NONE',  ( 0.000000000000000000, -7.999999199285761975, 5.000000000000000888 ) ) ;
#561 = FACE_OUTER_BOUND ( 'NONE', #27, .T. ) ;
#562 = ORIENTED_EDGE ( 'NONE', *, *, #294, .T. ) ;
#563 = ORIENTED_EDGE ( 'NONE', *, *, #1229, .T. ) ;
#564 = CARTESIAN_POINT ( 'NONE',  ( 24.49999999344351664, -10.99999919928576553, -2.000000000000000000 ) ) ;
#565 = EDGE_CURVE ( 'NONE', #1135, #517, #523, .T. ) ;
#566 = LINE ( 'NONE', #94, #697 ) ;
#567 = ORIENTED_EDGE ( 'NONE', *, *, #1093, .F. ) ;
#568 = VECTOR ( 'NONE', #85, 1000.000000000000000 ) ;
#569 = EDGE_CURVE ( 'NONE', #45, #437, #896, .T. ) ;
#570 = ORIENTED_EDGE ( 'NONE', *, *, #397, .F. ) ;
#571 = FACE_OUTER_BOUND ( 'NONE', #1065, .T. ) ;
#572 = ORIENTED_EDGE ( 'NONE', *, *, #512, .T. ) ;
#573 = PLANE ( 'NONE',  #897 ) ;
#574 = ORIENTED_EDGE ( 'NONE', *, *, #219, .F. ) ;
#575 = AXIS2_PLACEMENT_3D ( 'NONE', #710, #134, #492 ) ;
#576 = DIRECTION ( 'NONE',  ( 0.000000000000000000, -0.000000000000000000, 1.000000000000000000 ) ) ;
#577 = ORIENTED_EDGE ( 'NONE', *, *, #609, .T. ) ;
#578 = EDGE_LOOP ( 'NONE', ( #419, #861, #493, #1177 ) ) ;
#579 = DIRECTION ( 'NONE',  ( 1.000000000000000000, -0.000000000000000000, 0.000000000000000000 ) ) ;
#580 = VECTOR ( 'NONE', #606, 1000.000000000000000 ) ;
#581 = ORIENTED_EDGE ( 'NONE', *, *, #1142, .T. ) ;
#582 = VECTOR ( 'NONE', #1116, 1000.000000000000000 ) ;
#583 = DIRECTION ( 'NONE',  ( 1.000000000000000000, 0.000000000000000000, 0.000000000000000000 ) ) ;
#584 = UNCERTAINTY_MEASURE_WITH_UNIT (LENGTH_MEASURE( 1.000000000000000082E-05 ), #500, 'distance_accuracy_value', 'NONE');
#585 = ORIENTED_EDGE ( 'NONE', *, *, #939, .T. ) ;
#586 = DIRECTION ( 'NONE',  ( 1.000000000000000000, -0.000000000000000000, 0.000000000000000000 ) ) ;
#587 = ADVANCED_FACE ( 'NONE', ( #916 ), #409, .T. ) ;
#588 = DIRECTION ( 'NONE',  ( 1.000000000000000000, 0.000000000000000000, 0.000000000000000000 ) ) ;
#589 = CARTESIAN_POINT ( 'NONE',  ( 9.249999993443383417, 19.64644316126092249, 2.500000000000000000 ) ) ;
#590 = VERTEX_POINT ( 'NONE', #235 ) ;
#591 = DIRECTION ( 'NONE',  ( 0.000000000000000000, 0.000000000000000000, -1.000000000000000000 ) ) ;
#592 = VECTOR ( 'NONE', #190, 1000.000000000000000 ) ;
#593 = EDGE_CURVE ( 'NONE', #15, #191, #878, .T. ) ;
#594 = CIRCLE ( 'NONE', #1226, 1.599999999999998979 ) ;
#595 = PLANE ( 'NONE',  #97 ) ;
#596 = ORIENTED_EDGE ( 'NONE', *, *, #36, .T. ) ;
#597 = CARTESIAN_POINT ( 'NONE',  ( 18.64999999344338022, 39.90693907851730415, 0.000000000000000000 ) ) ;
#598 = CIRCLE ( 'NONE', #1211, 3.250000000000002665 ) ;
#599 = CARTESIAN_POINT ( 'NONE',  ( 9.249999993443383417, -4.999999195312474498, 2.500000000000000000 ) ) ;
#600 = AXIS2_PLACEMENT_3D ( 'NONE', #617, #994, #246 ) ;
#601 = ADVANCED_FACE ( 'NONE', ( #429, #818 ), #826, .T. ) ;
#602 = DIRECTION ( 'NONE',  ( 1.000000000000000000, 0.000000000000000000, 0.000000000000000000 ) ) ;
#603 = APPLICATION_PROTOCOL_DEFINITION ( 'draft international standard', 'automotive_design', 1998, #299 ) ;
#604 = VERTEX_POINT ( 'NONE', #811 ) ;
#605 = DIRECTION ( 'NONE',  ( 1.000000000000000000, 0.000000000000000000, 0.000000000000000000 ) ) ;
#606 = DIRECTION ( 'NONE',  ( 0.000000000000000000, -1.000000000000000000, 0.000000000000000000 ) ) ;
#607 = EDGE_CURVE ( 'NONE', #872, #872, #598, .T. ) ;
#608 = CARTESIAN_POINT ( 'NONE',  ( -20.00000000655676402, 39.90693907851730415, 1.500000000000000000 ) ) ;
#609 = EDGE_CURVE ( 'NONE', #857, #414, #339, .T. ) ;
#610 = ORIENTED_EDGE ( 'NONE', *, *, #550, .T. ) ;
#611 = CARTESIAN_POINT ( 'NONE',  ( -6.000000006556621024, 1.757358643478399873, 1.500000000000000444 ) ) ;
#612 = DIRECTION ( 'NONE',  ( -0.000000000000000000, 0.000000000000000000, 1.000000000000000000 ) ) ;
#613 = VECTOR ( 'NONE', #851, 1000.000000000000000 ) ;
#614 = PRODUCT_DEFINITION_FORMATION_WITH_SPECIFIED_SOURCE ( 'ÈÎºÎ', '', #1069, .NOT_KNOWN. ) ;
#615 = DIRECTION ( 'NONE',  ( 0.000000000000000000, -0.000000000000000000, 1.000000000000000000 ) ) ;
#616 = ORIENTED_EDGE ( 'NONE', *, *, #366, .F. ) ;
#617 = CARTESIAN_POINT ( 'NONE',  ( 0.000000000000000000, -3.000000000000000000, 3.500000000000000000 ) ) ;
#618 = CARTESIAN_POINT ( 'NONE',  ( -0.1500000065566215457, 0.000000000000000000, 0.000000000000000000 ) ) ;
#619 = VECTOR ( 'NONE', #123, 1000.000000000000000 ) ;
#620 = AXIS2_PLACEMENT_3D ( 'NONE', #786, #199, #105 ) ;
#621 = DIRECTION ( 'NONE',  ( 1.000000000000000000, 2.952720847795061126E-16, 0.000000000000000000 ) ) ;
#622 = EDGE_CURVE ( 'NONE', #1235, #95, #315, .T. ) ;
#623 = ORIENTED_EDGE ( 'NONE', *, *, #668, .T. ) ;
#624 = DIRECTION ( 'NONE',  ( 1.000000000000000000, 3.019409270141831298E-16, -0.000000000000000000 ) ) ;
#625 = CARTESIAN_POINT ( 'NONE',  ( -20.00000000655676402, 39.90693907851730415, 5.000000000000000888 ) ) ;
#626 = CARTESIAN_POINT ( 'NONE',  ( -20.00000000655676757, 36.64693907851729193, 2.500000000000000000 ) ) ;
#627 = ORIENTED_EDGE ( 'NONE', *, *, #838, .F. ) ;
#628 = VERTEX_POINT ( 'NONE', #698 ) ;
#629 = CARTESIAN_POINT ( 'NONE',  ( 17.98096508659633486, 36.64693907851730614, 2.500000000000000000 ) ) ;
#630 = DIRECTION ( 'NONE',  ( -0.000000000000000000, 0.000000000000000000, 1.000000000000000000 ) ) ;
#631 = DIRECTION ( 'NONE',  ( 1.000000000000000000, -0.000000000000000000, 0.000000000000000000 ) ) ;
#632 = VERTEX_POINT ( 'NONE', #1086 ) ;
#633 = CARTESIAN_POINT ( 'NONE',  ( -5.000000006556759580, -10.99999919928576553, 1.500000000000000000 ) ) ;
#634 = CARTESIAN_POINT ( 'NONE',  ( 24.49999999344351664, -10.99999919928576553, 1.500000000000000000 ) ) ;
#635 = EDGE_CURVE ( 'NONE', #83, #604, #1012, .T. ) ;
#636 = CARTESIAN_POINT ( 'NONE',  ( 18.64999999344338022, -10.99999919928576553, -2.000000000000000000 ) ) ;
#637 = AXIS2_PLACEMENT_3D ( 'NONE', #943, #442, #362 ) ;
#638 = ORIENTED_EDGE ( 'NONE', *, *, #308, .F. ) ;
#639 = DIRECTION ( 'NONE',  ( -0.000000000000000000, 0.000000000000000000, 1.000000000000000000 ) ) ;
#640 = ORIENTED_EDGE ( 'NONE', *, *, #737, .T. ) ;
#641 = CARTESIAN_POINT ( 'NONE',  ( 0.000000000000000000, -0.2500000000000000000, 1.500000000000000000 ) ) ;
#642 = EDGE_LOOP ( 'NONE', ( #712, #670, #740, #64, #682, #1028, #41 ) ) ;
#643 = CARTESIAN_POINT ( 'NONE',  ( -20.00000000655676047, 19.64644316126092249, 5.000000000000000888 ) ) ;
#644 = ORIENTED_EDGE ( 'NONE', *, *, #491, .T. ) ;
#645 = ORIENTED_EDGE ( 'NONE', *, *, #991, .T. ) ;
#646 = FACE_OUTER_BOUND ( 'NONE', #86, .T. ) ;
#647 = EDGE_CURVE ( 'NONE', #590, #121, #37, .T. ) ;
#648 = VERTEX_POINT ( 'NONE', #990 ) ;
#649 = CARTESIAN_POINT ( 'NONE',  ( -6.000000006556621024, 39.90693907851730415, -2.000000000000000000 ) ) ;
#650 = CARTESIAN_POINT ( 'NONE',  ( -1.126462992273219313E-14, 38.14999962202330863, 3.500000000000000000 ) ) ;
#651 = ORIENTED_EDGE ( 'NONE', *, *, #935, .T. ) ;
#652 = DIRECTION ( 'NONE',  ( 0.000000000000000000, 1.000000000000000000, 0.000000000000000000 ) ) ;
#653 = DIRECTION ( 'NONE',  ( 0.000000000000000000, 0.000000000000000000, -1.000000000000000000 ) ) ;
#654 = VECTOR ( 'NONE', #1050, 1000.000000000000000 ) ;
#655 = PLANE ( 'NONE',  #411 ) ;
#656 = VERTEX_POINT ( 'NONE', #133 ) ;
#657 = DIRECTION ( 'NONE',  ( -0.000000000000000000, 0.000000000000000000, 1.000000000000000000 ) ) ;
#658 = EDGE_CURVE ( 'NONE', #326, #678, #845, .T. ) ;
#659 = VECTOR ( 'NONE', #415, 1000.000000000000000 ) ;
#660 = VERTEX_POINT ( 'NONE', #87 ) ;
#661 = CARTESIAN_POINT ( 'NONE',  ( -6.000000006556621024, 1.757358643478399873, 0.000000000000000000 ) ) ;
#662 = EDGE_CURVE ( 'NONE', #45, #766, #364, .T. ) ;
#663 = CARTESIAN_POINT ( 'NONE',  ( -20.00000000655676402, 39.90693907851730415, 5.000000000000000888 ) ) ;
#664 = CARTESIAN_POINT ( 'NONE',  ( 4.941578011306497764, -7.999999199285761975, 3.500000000000000000 ) ) ;
#665 = CARTESIAN_POINT ( 'NONE',  ( 9.249999993443378088, -4.999999195312474498, 1.500000000000000000 ) ) ;
#666 = ORIENTED_EDGE ( 'NONE', *, *, #668, .F. ) ;
#667 = DIRECTION ( 'NONE',  ( 0.7071067195708380382, 0.7071068428022517782, -0.000000000000000000 ) ) ;
#668 = EDGE_CURVE ( 'NONE', #803, #95, #1231, .T. ) ;
#669 = DIRECTION ( 'NONE',  ( 1.000000000000000000, 0.000000000000000000, 0.000000000000000000 ) ) ;
#670 = ORIENTED_EDGE ( 'NONE', *, *, #751, .T. ) ;
#671 = ORIENTED_EDGE ( 'NONE', *, *, #111, .F. ) ;
#672 = CARTESIAN_POINT ( 'NONE',  ( -20.00000000655676402, 38.14999962202330153, 3.500000000000000000 ) ) ;
#673 = ORIENTED_EDGE ( 'NONE', *, *, #1142, .F. ) ;
#674 =( LENGTH_UNIT ( ) NAMED_UNIT ( * ) SI_UNIT ( .MILLI., .METRE. ) );
#675 = FACE_OUTER_BOUND ( 'NONE', #846, .T. ) ;
#676 = CARTESIAN_POINT ( 'NONE',  ( 10.84999999344338306, -4.999999195312474498, 0.000000000000000000 ) ) ;
#677 = VECTOR ( 'NONE', #248, 1000.000000000000000 ) ;
#678 = VERTEX_POINT ( 'NONE', #564 ) ;
#679 = SURFACE_STYLE_USAGE ( .BOTH. , #292 ) ;
#680 = AXIS2_PLACEMENT_3D ( 'NONE', #132, #330, #229 ) ;
#681 = EDGE_CURVE ( 'NONE', #34, #425, #750, .T. ) ;
#682 = ORIENTED_EDGE ( 'NONE', *, *, #524, .T. ) ;
#683 =( NAMED_UNIT ( * ) PLANE_ANGLE_UNIT ( ) SI_UNIT ( $, .RADIAN. ) );
#684 = ADVANCED_FACE ( 'NONE', ( #1039 ), #1238, .T. ) ;
#685 = ORIENTED_EDGE ( 'NONE', *, *, #126, .T. ) ;
#686 = DIRECTION ( 'NONE',  ( 1.000000000000000000, 0.000000000000000000, -0.000000000000000000 ) ) ;
#687 = CARTESIAN_POINT ( 'NONE',  ( -6.000000006556621024, 39.90693907851730415, 0.000000000000000000 ) ) ;
#688 = ORIENTED_EDGE ( 'NONE', *, *, #205, .T. ) ;
#689 = DIRECTION ( 'NONE',  ( -3.019409270141831298E-16, 1.000000000000000000, 0.000000000000000000 ) ) ;
#690 = LINE ( 'NONE', #1179, #619 ) ;
#691 = EDGE_CURVE ( 'NONE', #551, #557, #470, .T. ) ;
#692 = VECTOR ( 'NONE', #970, 1000.000000000000000 ) ;
#693 = DIRECTION ( 'NONE',  ( -1.000000000000000000, 0.000000000000000000, 0.000000000000000000 ) ) ;
#694 = SURFACE_STYLE_FILL_AREA ( #238 ) ;
#695 = ORIENTED_EDGE ( 'NONE', *, *, #883, .F. ) ;
#696 = LINE ( 'NONE', #909, #336 ) ;
#697 = VECTOR ( 'NONE', #765, 1000.000000000000000 ) ;
#698 = CARTESIAN_POINT ( 'NONE',  ( 24.49999999344351664, -3.000000000000000000, 1.500000000000000000 ) ) ;
#699 = EDGE_CURVE ( 'NONE', #176, #628, #1217, .T. ) ;
#700 = CARTESIAN_POINT ( 'NONE',  ( -0.1500000065566215179, -10.99999919928576553, 1.500000000000000000 ) ) ;
#701 = DIRECTION ( 'NONE',  ( 0.000000000000000000, 0.000000000000000000, 1.000000000000000000 ) ) ;
#702 = ORIENTED_EDGE ( 'NONE', *, *, #266, .F. ) ;
#703 = DIRECTION ( 'NONE',  ( 1.000000000000000000, 0.000000000000000000, -0.000000000000000000 ) ) ;
#704 = DIRECTION ( 'NONE',  ( 0.7071068430037945607, -0.7071067193692950337, 0.000000000000000000 ) ) ;
#705 = PRODUCT_DEFINITION_SHAPE ( 'NONE', 'NONE',  #1192 ) ;
#706 = LINE ( 'NONE', #1080, #794 ) ;
#707 = ORIENTED_EDGE ( 'NONE', *, *, #19, .F. ) ;
#708 = DIRECTION ( 'NONE',  ( -1.000000000000000000, 0.000000000000000000, 0.000000000000000000 ) ) ;
#709 = CARTESIAN_POINT ( 'NONE',  ( 19.33130113298449615, 39.90693907851730415, -2.000000000000000000 ) ) ;
#710 = CARTESIAN_POINT ( 'NONE',  ( 18.64999999344338022, -9.999999199285763751, -2.000000000000000000 ) ) ;
#711 =( NAMED_UNIT ( * ) SI_UNIT ( $, .STERADIAN. ) SOLID_ANGLE_UNIT ( ) );
#712 = ORIENTED_EDGE ( 'NONE', *, *, #991, .F. ) ;
#713 = DIRECTION ( 'NONE',  ( 1.000000000000000000, 3.019409270141831298E-16, -0.000000000000000000 ) ) ;
#714 = ADVANCED_FACE ( 'NONE', ( #1148 ), #1131, .T. ) ;
#715 = DIRECTION ( 'NONE',  ( 0.000000000000000000, 0.000000000000000000, -1.000000000000000000 ) ) ;
#716 = AXIS2_PLACEMENT_3D ( 'NONE', #496, #882, #788 ) ;
#717 = VECTOR ( 'NONE', #399, 1000.000000000000000 ) ;
#718 = CARTESIAN_POINT ( 'NONE',  ( -6.000000006556621024, -10.99999919928576553, -2.000000000000000000 ) ) ;
#719 = EDGE_CURVE ( 'NONE', #678, #83, #951, .T. ) ;
#720 = ORIENTED_EDGE ( 'NONE', *, *, #491, .F. ) ;
#721 = CARTESIAN_POINT ( 'NONE',  ( 24.49999999344351664, 32.25355373135845127, 5.000000000000000888 ) ) ;
#722 = CARTESIAN_POINT ( 'NONE',  ( 9.249999993443383417, -4.999999195312474498, 5.000000000000000888 ) ) ;
#723 = DIRECTION ( 'NONE',  ( 1.000000000000000000, 0.000000000000000000, 0.000000000000000000 ) ) ;
#724 = ORIENTED_EDGE ( 'NONE', *, *, #1030, .F. ) ;
#725 = FACE_BOUND ( 'NONE', #1052, .T. ) ;
#726 = CARTESIAN_POINT ( 'NONE',  ( -5.000000006556759580, -10.99999919928576553, 5.000000000000000888 ) ) ;
#727 = VERTEX_POINT ( 'NONE', #280 ) ;
#728 = COLOUR_RGB ( '',0.7921568627450980005, 0.8196078431372548767, 0.9333333333333333481 ) ;
#729 = ADVANCED_FACE ( 'NONE', ( #273 ), #1031, .T. ) ;
#730 = FACE_OUTER_BOUND ( 'NONE', #240, .T. ) ;
#731 = EDGE_LOOP ( 'NONE', ( #140, #337, #466, #386 ) ) ;
#732 = LINE ( 'NONE', #835, #271 ) ;
#733 = AXIS2_PLACEMENT_3D ( 'NONE', #413, #311, #693 ) ;
#734 = CARTESIAN_POINT ( 'NONE',  ( -0.1035533778322433457, -0.2500000000000000000, 2.500000000000000000 ) ) ;
#735 = EDGE_CURVE ( 'NONE', #115, #224, #351, .T. ) ;
#736 = VECTOR ( 'NONE', #129, 1000.000000000000114 ) ;
#737 = EDGE_CURVE ( 'NONE', #1251, #326, #180, .T. ) ;
#738 = CARTESIAN_POINT ( 'NONE',  ( 24.49999999344351664, 1.250000000000000000, 5.000000000000000888 ) ) ;
#739 = AXIS2_PLACEMENT_3D ( 'NONE', #207, #586, #591 ) ;
#740 = ORIENTED_EDGE ( 'NONE', *, *, #1004, .T. ) ;
#741 = EDGE_LOOP ( 'NONE', ( #1044, #848, #349, #1223, #1220, #1076, #585, #1083, #501, #1157 ) ) ;
#742 = DIRECTION ( 'NONE',  ( 0.000000000000000000, -0.000000000000000000, -1.000000000000000000 ) ) ;
#743 = ORIENTED_EDGE ( 'NONE', *, *, #719, .T. ) ;
#744 = CARTESIAN_POINT ( 'NONE',  ( -20.00000000655676402, 39.90693907851730415, 1.500000000000000000 ) ) ;
#745 = LINE ( 'NONE', #431, #391 ) ;
#746 = ORIENTED_EDGE ( 'NONE', *, *, #397, .T. ) ;
#747 = EDGE_LOOP ( 'NONE', ( #921, #361, #379, #885, #908, #483, #823, #574, #1240, #993, #407, #814, #1173, #863, #149 ) ) ;
#748 = LINE ( 'NONE', #1237, #490 ) ;
#749 = ORIENTED_EDGE ( 'NONE', *, *, #1004, .F. ) ;
#750 = LINE ( 'NONE', #744, #559 ) ;
#751 = EDGE_CURVE ( 'NONE', #1011, #660, #945, .T. ) ;
#752 = CARTESIAN_POINT ( 'NONE',  ( -20.00000000655676757, 39.90693907851730415, 0.000000000000000000 ) ) ;
#753 = DIRECTION ( 'NONE',  ( 0.7071068428022516672, -0.7071067195708379272, 0.000000000000000000 ) ) ;
#754 = CARTESIAN_POINT ( 'NONE',  ( 14.10412228472833007, -3.000000000000000000, 1.500000000000000000 ) ) ;
#755 = EDGE_CURVE ( 'NONE', #604, #1135, #938, .T. ) ;
#756 = DIRECTION ( 'NONE',  ( -0.000000000000000000, -0.000000000000000000, -1.000000000000000000 ) ) ;
#757 = VERTEX_POINT ( 'NONE', #1224 ) ;
#758 = CARTESIAN_POINT ( 'NONE',  ( 0.000000000000000000, -7.999999199285761975, 1.500000000000000000 ) ) ;
#759 = DIRECTION ( 'NONE',  ( -0.7071068428022514452, 0.7071067195708382602, 0.000000000000000000 ) ) ;
#760 = FILL_AREA_STYLE_COLOUR ( '', #728 ) ;
#761 = VECTOR ( 'NONE', #831, 1000.000000000000000 ) ;
#762 = VERTEX_POINT ( 'NONE', #734 ) ;
#763 = DIRECTION ( 'NONE',  ( 1.000000000000000000, 0.000000000000000000, 0.000000000000000000 ) ) ;
#764 = ORIENTED_EDGE ( 'NONE', *, *, #905, .T. ) ;
#765 = DIRECTION ( 'NONE',  ( 0.000000000000000000, 1.000000000000000000, 0.000000000000000000 ) ) ;
#766 = VERTEX_POINT ( 'NONE', #1123 ) ;
#767 = CARTESIAN_POINT ( 'NONE',  ( 0.5177668891612171587, 1.250000000000000222, 4.500000000000000888 ) ) ;
#768 = CARTESIAN_POINT ( 'NONE',  ( -6.000000006556621024, -10.99999919928576553, -2.000000000000000000 ) ) ;
#769 = ORIENTED_EDGE ( 'NONE', *, *, #272, .T. ) ;
#770 = CARTESIAN_POINT ( 'NONE',  ( 24.49999999344351664, 32.25355373135845127, 1.500000000000000000 ) ) ;
#771 = ORIENTED_EDGE ( 'NONE', *, *, #1156, .T. ) ;
#772 = EDGE_CURVE ( 'NONE', #538, #341, #260, .T. ) ;
#773 = CARTESIAN_POINT ( 'NONE',  ( -2.121320158712513670, -2.121320528406754669, 1.500000000000000000 ) ) ;
#774 = APPLICATION_PROTOCOL_DEFINITION ( 'draft international standard', 'automotive_design', 1998, #983 ) ;
#775 = ORIENTED_EDGE ( 'NONE', *, *, #825, .F. ) ;
#776 = EDGE_CURVE ( 'NONE', #452, #762, #357, .T. ) ;
#777 = EDGE_CURVE ( 'NONE', #632, #894, #265, .T. ) ;
#778 = VECTOR ( 'NONE', #621, 1000.000000000000000 ) ;
#779 = DIRECTION ( 'NONE',  ( 0.000000000000000000, -0.000000000000000000, -1.000000000000000000 ) ) ;
#780 = CARTESIAN_POINT ( 'NONE',  ( -1.126462992273219313E-14, 38.14999962202330863, 2.500000000000000000 ) ) ;
#781 = ORIENTED_EDGE ( 'NONE', *, *, #662, .F. ) ;
#782 = FILL_AREA_STYLE ('',( #478 ) ) ;
#783 = LINE ( 'NONE', #130, #54 ) ;
#784 = CARTESIAN_POINT ( 'NONE',  ( 12.49999999344338519, -4.999999195312474498, 1.500000000000000000 ) ) ;
#785 = VERTEX_POINT ( 'NONE', #649 ) ;
#786 = CARTESIAN_POINT ( 'NONE',  ( 9.249999993443378088, -4.999999195312474498, 1.500000000000000000 ) ) ;
#787 = EDGE_CURVE ( 'NONE', #437, #1122, #122, .T. ) ;
#788 = DIRECTION ( 'NONE',  ( 0.7071068428022515562, -0.7071067195708381492, 0.000000000000000000 ) ) ;
#789 = DIRECTION ( 'NONE',  ( 0.000000000000000000, 1.000000000000000000, 0.000000000000000000 ) ) ;
#790 = VECTOR ( 'NONE', #1051, 1000.000000000000000 ) ;
#791 = EDGE_LOOP ( 'NONE', ( #1110 ) ) ;
#792 = DIRECTION ( 'NONE',  ( 0.7071068428022516672, -0.7071067195708379272, 0.000000000000000000 ) ) ;
#793 = DIRECTION ( 'NONE',  ( 0.7071068430037930064, -0.7071067193692965880, 0.000000000000000000 ) ) ;
#794 = VECTOR ( 'NONE', #120, 1000.000000000000000 ) ;
#795 = ORIENTED_EDGE ( 'NONE', *, *, #448, .F. ) ;
#796 = DIRECTION ( 'NONE',  ( 0.000000000000000000, -1.000000000000000000, 0.000000000000000000 ) ) ;
#797 = EDGE_LOOP ( 'NONE', ( #275, #198, #329, #702 ) ) ;
#798 = DIRECTION ( 'NONE',  ( -1.000000000000000000, 0.000000000000000000, 0.000000000000000000 ) ) ;
#799 = VECTOR ( 'NONE', #535, 1000.000000000000000 ) ;
#800 = VECTOR ( 'NONE', #891, 1000.000000000000000 ) ;
#801 = CARTESIAN_POINT ( 'NONE',  ( -20.00000000655676757, 15.75735620362123868, 0.000000000000000000 ) ) ;
#802 = DIRECTION ( 'NONE',  ( -1.000000000000000000, 0.000000000000000000, 0.000000000000000000 ) ) ;
#803 = VERTEX_POINT ( 'NONE', #383 ) ;
#804 = DIRECTION ( 'NONE',  ( 0.000000000000000000, 0.000000000000000000, -1.000000000000000000 ) ) ;
#805 = LINE ( 'NONE', #325, #118 ) ;
#806 = ADVANCED_FACE ( 'NONE', ( #1077 ), #16, .F. ) ;
#807 = CYLINDRICAL_SURFACE ( 'NONE', #733, 3.250000000000002665 ) ;
#808 = DIRECTION ( 'NONE',  ( 1.000000000000000000, 0.000000000000000000, 0.000000000000000000 ) ) ;
#809 = VERTEX_POINT ( 'NONE', #597 ) ;
#810 = DIRECTION ( 'NONE',  ( 0.000000000000000000, -0.000000000000000000, 1.000000000000000000 ) ) ;
#811 = CARTESIAN_POINT ( 'NONE',  ( 18.64999999344338022, 39.90693907851730415, -2.000000000000000000 ) ) ;
#812 = EDGE_CURVE ( 'NONE', #762, #538, #1178, .T. ) ;
#813 = DIRECTION ( 'NONE',  ( -0.000000000000000000, 0.000000000000000000, 1.000000000000000000 ) ) ;
#814 = ORIENTED_EDGE ( 'NONE', *, *, #1128, .F. ) ;
#815 = EDGE_CURVE ( 'NONE', #1034, #450, #387, .T. ) ;
#816 = EDGE_LOOP ( 'NONE', ( #830, #1182, #263, #873 ) ) ;
#817 = CYLINDRICAL_SURFACE ( 'NONE', #159, 1.599999999999998979 ) ;
#818 = FACE_BOUND ( 'NONE', #1003, .T. ) ;
#819 = ORIENTED_EDGE ( 'NONE', *, *, #1111, .F. ) ;
#820 = VECTOR ( 'NONE', #154, 1000.000000000000000 ) ;
#821 = VECTOR ( 'NONE', #653, 1000.000000000000000 ) ;
#822 = DIRECTION ( 'NONE',  ( -0.000000000000000000, -0.000000000000000000, -1.000000000000000000 ) ) ;
#823 = ORIENTED_EDGE ( 'NONE', *, *, #436, .F. ) ;
#824 = DIRECTION ( 'NONE',  ( 1.000000000000000000, 0.000000000000000000, 0.000000000000000000 ) ) ;
#825 = EDGE_CURVE ( 'NONE', #450, #121, #298, .T. ) ;
#826 = PLANE ( 'NONE',  #1150 ) ;
#827 = DIRECTION ( 'NONE',  ( 0.7071068428022516672, -0.7071067195708379272, 0.000000000000000000 ) ) ;
#828 = EDGE_LOOP ( 'NONE', ( #581, #764, #345, #856 ) ) ;
#829 = DIRECTION ( 'NONE',  ( 0.000000000000000000, 1.000000000000000000, 0.000000000000000000 ) ) ;
#830 = ORIENTED_EDGE ( 'NONE', *, *, #849, .T. ) ;
#831 = DIRECTION ( 'NONE',  ( 1.000000000000000000, 0.000000000000000000, 0.000000000000000000 ) ) ;
#832 = ADVANCED_FACE ( 'NONE', ( #211 ), #880, .T. ) ;
#833 = LINE ( 'NONE', #636, #677 ) ;
#834 = ORIENTED_EDGE ( 'NONE', *, *, #735, .F. ) ;
#835 = CARTESIAN_POINT ( 'NONE',  ( -6.000000006556621024, 0.000000000000000000, 5.000000000000000888 ) ) ;
#836 = DIRECTION ( 'NONE',  ( 0.7071068428022514452, -0.7071067195708382602, 0.000000000000000000 ) ) ;
#837 = VECTOR ( 'NONE', #912, 1000.000000000000000 ) ;
#838 = EDGE_CURVE ( 'NONE', #303, #1127, #1071, .T. ) ;
#839 = CARTESIAN_POINT ( 'NONE',  ( 0.000000000000000000, 0.000000000000000000, 1.500000000000000000 ) ) ;
#840 = VECTOR ( 'NONE', #836, 1000.000000000000000 ) ;
#841 = MANIFOLD_SOLID_BREP ( 'ÇÐ³ý-À­Éì8', #1146 ) ;
#842 = ORIENTED_EDGE ( 'NONE', *, *, #1246, .F. ) ;
#843 = PLANE ( 'NONE',  #637 ) ;
#844 = ORIENTED_EDGE ( 'NONE', *, *, #36, .F. ) ;
#845 = LINE ( 'NONE', #634, #821 ) ;
#846 = EDGE_LOOP ( 'NONE', ( #942, #666, #1105, #1023 ) ) ;
#847 = CARTESIAN_POINT ( 'NONE',  ( 18.64999999344338022, 0.000000000000000000, 0.000000000000000000 ) ) ;
#848 = ORIENTED_EDGE ( 'NONE', *, *, #905, .F. ) ;
#849 = EDGE_CURVE ( 'NONE', #414, #924, #40, .T. ) ;
#850 = CARTESIAN_POINT ( 'NONE',  ( 13.55842197558025752, -7.999999199285761975, 5.000000000000000888 ) ) ;
#851 = DIRECTION ( 'NONE',  ( 0.000000000000000000, -0.000000000000000000, 1.000000000000000000 ) ) ;
#852 = ORIENTED_EDGE ( 'NONE', *, *, #29, .F. ) ;
#853 = DIRECTION ( 'NONE',  ( 1.000000000000000000, 0.000000000000000000, -0.000000000000000000 ) ) ;
#854 = CARTESIAN_POINT ( 'NONE',  ( 0.000000000000000000, -3.000000000000000000, 5.000000000000000888 ) ) ;
#855 = ORIENTED_EDGE ( 'NONE', *, *, #607, .T. ) ;
#856 = ORIENTED_EDGE ( 'NONE', *, *, #278, .F. ) ;
#857 = VERTEX_POINT ( 'NONE', #484 ) ;
#858 = SURFACE_STYLE_FILL_AREA ( #782 ) ;
#859 = AXIS2_PLACEMENT_3D ( 'NONE', #511, #789, #231 ) ;
#860 = LINE ( 'NONE', #1054, #255 ) ;
#861 = ORIENTED_EDGE ( 'NONE', *, *, #1111, .T. ) ;
#862 = CIRCLE ( 'NONE', #1021, 3.250000000000002665 ) ;
#863 = ORIENTED_EDGE ( 'NONE', *, *, #455, .F. ) ;
#864 = EDGE_LOOP ( 'NONE', ( #1020, #469, #743, #889, #513 ) ) ;
#865 = ORIENTED_EDGE ( 'NONE', *, *, #179, .F. ) ;
#866 = DIRECTION ( 'NONE',  ( 0.000000000000000000, -0.000000000000000000, -1.000000000000000000 ) ) ;
#867 = CARTESIAN_POINT ( 'NONE',  ( -5.000000006556759580, -10.99999919928576553, 0.000000000000000000 ) ) ;
#868 = ORIENTED_EDGE ( 'NONE', *, *, #366, .T. ) ;
#869 = ADVANCED_FACE ( 'NONE', ( #12 ), #1168, .F. ) ;
#870 = ADVANCED_FACE ( 'NONE', ( #304 ), #1053, .F. ) ;
#871 = CARTESIAN_POINT ( 'NONE',  ( -20.00000000655676402, 19.64644316126092605, 3.500000000000000000 ) ) ;
#872 = VERTEX_POINT ( 'NONE', #486 ) ;
#873 = ORIENTED_EDGE ( 'NONE', *, *, #1072, .T. ) ;
#874 = DIRECTION ( 'NONE',  ( -0.000000000000000000, 0.000000000000000000, 1.000000000000000000 ) ) ;
#875 = ADVANCED_FACE ( 'NONE', ( #192 ), #573, .F. ) ;
#876 = PLANE ( 'NONE',  #236 ) ;
#877 = CARTESIAN_POINT ( 'NONE',  ( 28.37677472054236105, 28.37677968209647617, 3.500000000000000000 ) ) ;
#878 = CIRCLE ( 'NONE', #495, 5.250000000000000888 ) ;
#879 = ORIENTED_EDGE ( 'NONE', *, *, #234, .T. ) ;
#880 = PLANE ( 'NONE',  #454 ) ;
#881 = PRESENTATION_LAYER_ASSIGNMENT (  '', '', ( #377 ) ) ;
#882 = DIRECTION ( 'NONE',  ( -0.7071067195708381492, -0.7071068428022515562, 0.000000000000000000 ) ) ;
#883 = EDGE_CURVE ( 'NONE', #312, #549, #314, .T. ) ;
#884 = CARTESIAN_POINT ( 'NONE',  ( -1.242640533986918427, -3.000000000000000000, 5.000000000000000888 ) ) ;
#885 = ORIENTED_EDGE ( 'NONE', *, *, #410, .F. ) ;
#886 = CARTESIAN_POINT ( 'NONE',  ( 17.98096508659633486, 36.64693907851730614, 5.000000000000000888 ) ) ;
#887 = CARTESIAN_POINT ( 'NONE',  ( 14.10412228472833007, -3.000000000000000000, 5.000000000000000888 ) ) ;
#888 = CARTESIAN_POINT ( 'NONE',  ( 24.49999999344351664, -3.000000000000000000, 5.000000000000000888 ) ) ;
#889 = ORIENTED_EDGE ( 'NONE', *, *, #635, .T. ) ;
#890 = PLANE ( 'NONE',  #519 ) ;
#891 = DIRECTION ( 'NONE',  ( 0.000000000000000000, 1.000000000000000000, 0.000000000000000000 ) ) ;
#892 = CARTESIAN_POINT ( 'NONE',  ( 0.000000000000000000, -7.999999199285761975, 3.500000000000000000 ) ) ;
#893 =( NAMED_UNIT ( * ) PLANE_ANGLE_UNIT ( ) SI_UNIT ( $, .RADIAN. ) );
#894 = VERTEX_POINT ( 'NONE', #128 ) ;
#895 = CARTESIAN_POINT ( 'NONE',  ( 4.941578011306497764, -7.999999199285761975, 1.500000000000000000 ) ) ;
#896 = CIRCLE ( 'NONE', #1061, 5.250000000000000888 ) ;
#897 = AXIS2_PLACEMENT_3D ( 'NONE', #969, #689, #109 ) ;
#898 = DIRECTION ( 'NONE',  ( 1.000000000000000000, 0.000000000000000000, 0.000000000000000000 ) ) ;
#899 = ADVANCED_FACE ( 'NONE', ( #514 ), #890, .F. ) ;
#900 = DIRECTION ( 'NONE',  ( -0.000000000000000000, 0.000000000000000000, 1.000000000000000000 ) ) ;
#901 = ORIENTED_EDGE ( 'NONE', *, *, #1209, .T. ) ;
#902 = LINE ( 'NONE', #629, #394 ) ;
#903 = CARTESIAN_POINT ( 'NONE',  ( -0.1500000065566215457, 39.90693907851730415, -2.000000000000000000 ) ) ;
#904 = ORIENTED_EDGE ( 'NONE', *, *, #609, .F. ) ;
#905 = EDGE_CURVE ( 'NONE', #425, #115, #1198, .T. ) ;
#906 = CARTESIAN_POINT ( 'NONE',  ( -17.87867947814998004, 19.64644316126092249, 4.500000000000000888 ) ) ;
#907 = PRESENTATION_STYLE_ASSIGNMENT (( #223 ) ) ;
#908 = ORIENTED_EDGE ( 'NONE', *, *, #554, .F. ) ;
#909 = CARTESIAN_POINT ( 'NONE',  ( -5.000000006556759580, 39.90693907851730415, 5.000000000000000888 ) ) ;
#910 = CARTESIAN_POINT ( 'NONE',  ( 0.000000000000000000, -7.999999199285761975, 3.500000000000000000 ) ) ;
#911 = EDGE_CURVE ( 'NONE', #312, #153, #1101, .T. ) ;
#912 = DIRECTION ( 'NONE',  ( 0.000000000000000000, 1.000000000000000000, -0.000000000000000000 ) ) ;
#913 = VECTOR ( 'NONE', #72, 1000.000000000000000 ) ;
#914 = ORIENTED_EDGE ( 'NONE', *, *, #19, .T. ) ;
#915 = CARTESIAN_POINT ( 'NONE',  ( 19.33130113298449615, 39.90693907851730415, -2.000000000000000000 ) ) ;
#916 = FACE_OUTER_BOUND ( 'NONE', #348, .T. ) ;
#917 = AXIS2_PLACEMENT_3D ( 'NONE', #599, #1078, #459 ) ;
#918 = EDGE_CURVE ( 'NONE', #67, #632, #527, .T. ) ;
#919 = VECTOR ( 'NONE', #756, 1000.000000000000000 ) ;
#920 = CARTESIAN_POINT ( 'NONE',  ( 24.49999999344351664, 39.90693907851730415, 1.500000000000000000 ) ) ;
#921 = ORIENTED_EDGE ( 'NONE', *, *, #751, .F. ) ;
#922 = DIRECTION ( 'NONE',  ( 0.000000000000000000, 1.000000000000000000, 0.000000000000000000 ) ) ;
#923 = ADVANCED_FACE ( 'NONE', ( #338 ), #324, .F. ) ;
#924 = VERTEX_POINT ( 'NONE', #895 ) ;
#925 = CARTESIAN_POINT ( 'NONE',  ( 18.49999999344337809, 39.90693907851730415, -2.000000000000000000 ) ) ;
#926 = LINE ( 'NONE', #906, #913 ) ;
#927 = ORIENTED_EDGE ( 'NONE', *, *, #635, .F. ) ;
#928 = FACE_OUTER_BOUND ( 'NONE', #11, .T. ) ;
#929 = ORIENTED_EDGE ( 'NONE', *, *, #1246, .T. ) ;
#930 = CARTESIAN_POINT ( 'NONE',  ( 24.49999999344351664, -3.000000000000002665, 1.500000000000000000 ) ) ;
#931 = CARTESIAN_POINT ( 'NONE',  ( -5.000000006556759580, 6.767765934106275694, 5.000000000000000888 ) ) ;
#932 = EDGE_LOOP ( 'NONE', ( #1007, #343, #24, #960, #480, #398 ) ) ;
#933 = ORIENTED_EDGE ( 'NONE', *, *, #489, .T. ) ;
#934 = DIRECTION ( 'NONE',  ( 0.000000000000000000, 1.000000000000000000, 0.000000000000000000 ) ) ;
#935 = EDGE_CURVE ( 'NONE', #323, #590, #902, .T. ) ;
#936 = VECTOR ( 'NONE', #1143, 1000.000000000000000 ) ;
#937 = ORIENTED_EDGE ( 'NONE', *, *, #346, .T. ) ;
#938 = LINE ( 'NONE', #925, #761 ) ;
#939 = EDGE_CURVE ( 'NONE', #604, #809, #507, .T. ) ;
#940 = DIRECTION ( 'NONE',  ( 0.000000000000000000, 1.000000000000000000, 0.000000000000000000 ) ) ;
#941 = ORIENTED_EDGE ( 'NONE', *, *, #440, .T. ) ;
#942 = ORIENTED_EDGE ( 'NONE', *, *, #622, .T. ) ;
#943 = CARTESIAN_POINT ( 'NONE',  ( 0.000000000000000000, 0.000000000000000000, 0.000000000000000000 ) ) ;
#944 = VERTEX_POINT ( 'NONE', #241 ) ;
#945 = LINE ( 'NONE', #252, #281 ) ;
#946 = EDGE_CURVE ( 'NONE', #766, #427, #28, .T. ) ;
#947 = CARTESIAN_POINT ( 'NONE',  ( -20.00000000655676402, 39.90693907851730415, 1.500000000000000000 ) ) ;
#948 = CARTESIAN_POINT ( 'NONE',  ( 18.64999999344338022, -10.99999919928576553, -2.000000000000000000 ) ) ;
#949 = LINE ( 'NONE', #196, #1139 ) ;
#950 = ORIENTED_EDGE ( 'NONE', *, *, #430, .F. ) ;
#951 = LINE ( 'NONE', #92, #433 ) ;
#952 = FACE_OUTER_BOUND ( 'NONE', #460, .T. ) ;
#953 = EDGE_LOOP ( 'NONE', ( #1057, #177, #143, #933, #1134, #638, #1141, #640, #540, #781, #543, #769, #1227, #173, #868 ) ) ;
#954 = VERTEX_POINT ( 'NONE', #408 ) ;
#955 = DIRECTION ( 'NONE',  ( -0.7071068430037930064, 0.7071067193692965880, 0.000000000000000000 ) ) ;
#956 = ORIENTED_EDGE ( 'NONE', *, *, #787, .F. ) ;
#957 = DIRECTION ( 'NONE',  ( 0.000000000000000000, 0.000000000000000000, 1.000000000000000000 ) ) ;
#958 = PRODUCT_RELATED_PRODUCT_CATEGORY ( 'part', '', ( #1069 ) ) ;
#959 = AXIS2_PLACEMENT_3D ( 'NONE', #650, #175, #274 ) ;
#960 = ORIENTED_EDGE ( 'NONE', *, *, #935, .F. ) ;
#961 = CARTESIAN_POINT ( 'NONE',  ( 0.000000000000000000, -0.2500000000000000000, 2.500000000000000000 ) ) ;
#962 = PLANE ( 'NONE',  #1009 ) ;
#963 = EDGE_CURVE ( 'NONE', #985, #34, #696, .T. ) ;
#964 = ORIENTED_EDGE ( 'NONE', *, *, #622, .F. ) ;
#965 = CARTESIAN_POINT ( 'NONE',  ( 0.000000000000000000, 0.000000000000000000, 2.500000000000000000 ) ) ;
#966 = CARTESIAN_POINT ( 'NONE',  ( -1.242640533986918427, -3.000000000000000000, 3.500000000000000000 ) ) ;
#967 = LINE ( 'NONE', #589, #423 ) ;
#968 = ORIENTED_EDGE ( 'NONE', *, *, #430, .T. ) ;
#969 = CARTESIAN_POINT ( 'NONE',  ( 17.98096508659633486, 36.64693907851730614, 4.500000000000000888 ) ) ;
#970 = DIRECTION ( 'NONE',  ( -0.000000000000000000, 0.000000000000000000, -1.000000000000000000 ) ) ;
#971 = CARTESIAN_POINT ( 'NONE',  ( 17.98096508659633486, 36.64693907851730614, 4.500000000000000888 ) ) ;
#972 = ORIENTED_EDGE ( 'NONE', *, *, #1149, .T. ) ;
#973 = PRESENTATION_STYLE_ASSIGNMENT (( #679 ) ) ;
#974 = FACE_OUTER_BOUND ( 'NONE', #7, .T. ) ;
#975 = DIRECTION ( 'NONE',  ( -1.000000000000000000, -0.000000000000000000, -0.000000000000000000 ) ) ;
#976 = ORIENTED_EDGE ( 'NONE', *, *, #508, .T. ) ;
#977 = DIRECTION ( 'NONE',  ( -0.000000000000000000, -0.000000000000000000, 1.000000000000000000 ) ) ;
#978 = VECTOR ( 'NONE', #488, 1000.000000000000000 ) ;
#979 = DIRECTION ( 'NONE',  ( -0.000000000000000000, 1.000000000000000000, -0.000000000000000000 ) ) ;
#980 = CARTESIAN_POINT ( 'NONE',  ( 4.941578011306497764, -7.999999199285761975, 5.000000000000000888 ) ) ;
#981 = EDGE_LOOP ( 'NONE', ( #521, #645, #819, #775 ) ) ;
#982 = CARTESIAN_POINT ( 'NONE',  ( -6.000000006556621024, 39.90693907851730415, 0.000000000000000000 ) ) ;
#983 = APPLICATION_CONTEXT ( 'automotive_design' ) ;
#984 = LINE ( 'NONE', #528, #181 ) ;
#985 = VERTEX_POINT ( 'NONE', #52 ) ;
#986 = DIRECTION ( 'NONE',  ( -0.000000000000000000, 0.000000000000000000, 1.000000000000000000 ) ) ;
#987 = AXIS2_PLACEMENT_3D ( 'NONE', #135, #701, #808 ) ;
#988 = ORIENTED_EDGE ( 'NONE', *, *, #498, .T. ) ;
#989 = LINE ( 'NONE', #144, #659 ) ;
#990 = CARTESIAN_POINT ( 'NONE',  ( 13.55842197558025752, -7.999999199285761975, 1.500000000000000000 ) ) ;
#991 = EDGE_CURVE ( 'NONE', #1011, #894, #320, .T. ) ;
#992 = FACE_OUTER_BOUND ( 'NONE', #335, .T. ) ;
#993 = ORIENTED_EDGE ( 'NONE', *, *, #515, .F. ) ;
#994 = DIRECTION ( 'NONE',  ( 0.000000000000000000, 1.000000000000000000, 0.000000000000000000 ) ) ;
#995 = VECTOR ( 'NONE', #979, 1000.000000000000000 ) ;
#996 = ADVANCED_FACE ( 'NONE', ( #1091 ), #1084, .T. ) ;
#997 = VECTOR ( 'NONE', #443, 1000.000000000000000 ) ;
#998 = DIRECTION ( 'NONE',  ( 1.000000000000000000, 0.000000000000000000, 0.000000000000000000 ) ) ;
#999 = CARTESIAN_POINT ( 'NONE',  ( 24.49999999344351664, 39.90693907851730415, 2.500000000000000000 ) ) ;
#1000 = VERTEX_POINT ( 'NONE', #611 ) ;
#1001 = CARTESIAN_POINT ( 'NONE',  ( 18.64999999344338022, 39.90693907851730415, 1.500000000000000000 ) ) ;
#1002 = CARTESIAN_POINT ( 'NONE',  ( 9.249999993443378088, -4.999999195312474498, 5.000000000000000888 ) ) ;
#1003 = EDGE_LOOP ( 'NONE', ( #1006 ) ) ;
#1004 = EDGE_CURVE ( 'NONE', #660, #985, #989, .T. ) ;
#1005 = CARTESIAN_POINT ( 'NONE',  ( 28.37677472054236105, 28.37677968209647617, 1.500000000000000000 ) ) ;
#1006 = ORIENTED_EDGE ( 'NONE', *, *, #607, .F. ) ;
#1007 = ORIENTED_EDGE ( 'NONE', *, *, #448, .T. ) ;
#1008 = FACE_OUTER_BOUND ( 'NONE', #441, .T. ) ;
#1009 = AXIS2_PLACEMENT_3D ( 'NONE', #1155, #204, #290 ) ;
#1010 = ADVANCED_FACE ( 'NONE', ( #233 ), #428, .F. ) ;
#1011 = VERTEX_POINT ( 'NONE', #138 ) ;
#1012 = LINE ( 'NONE', #226, #800 ) ;
#1013 = EDGE_LOOP ( 'NONE', ( #865 ) ) ;
#1014 = ADVANCED_FACE ( 'NONE', ( #1008, #522 ), #817, .F. ) ;
#1015 = LINE ( 'NONE', #920, #518 ) ;
#1016 = EDGE_LOOP ( 'NONE', ( #137, #914, #210, #56 ) ) ;
#1017 = AXIS2_PLACEMENT_3D ( 'NONE', #530, #1234, #1126 ) ;
#1018 = CARTESIAN_POINT ( 'NONE',  ( -20.00000000655676047, 19.64644316126092249, -3.621952694567251996 ) ) ;
#1019 = DIRECTION ( 'NONE',  ( 0.000000000000000000, 0.000000000000000000, -1.000000000000000000 ) ) ;
#1020 = ORIENTED_EDGE ( 'NONE', *, *, #565, .T. ) ;
#1021 = AXIS2_PLACEMENT_3D ( 'NONE', #1203, #639, #824 ) ;
#1022 = LINE ( 'NONE', #999, #837 ) ;
#1023 = ORIENTED_EDGE ( 'NONE', *, *, #436, .T. ) ;
#1024 = CARTESIAN_POINT ( 'NONE',  ( -20.00000000655676047, 19.64644316126092249, -3.621952694567251996 ) ) ;
#1025 = ORIENTED_EDGE ( 'NONE', *, *, #426, .T. ) ;
#1026 = DIRECTION ( 'NONE',  ( 1.000000000000000000, -0.000000000000000000, 0.000000000000000000 ) ) ;
#1027 = CARTESIAN_POINT ( 'NONE',  ( -6.556621565123599282E-09, 39.90693907851730415, -2.000000000000000000 ) ) ;
#1028 = ORIENTED_EDGE ( 'NONE', *, *, #918, .T. ) ;
#1029 = CYLINDRICAL_SURFACE ( 'NONE', #1222, 5.250000000000000888 ) ;
#1030 = EDGE_CURVE ( 'NONE', #1046, #1046, #862, .T. ) ;
#1031 = CYLINDRICAL_SURFACE ( 'NONE', #58, 5.250000000000000888 ) ;
#1032 = CARTESIAN_POINT ( 'NONE',  ( 24.49999999344351664, 39.90693907851730415, -2.000000000000000000 ) ) ;
#1033 = ORIENTED_EDGE ( 'NONE', *, *, #1176, .F. ) ;
#1034 = VERTEX_POINT ( 'NONE', #76 ) ;
#1035 = LINE ( 'NONE', #165, #613 ) ;
#1036 = UNCERTAINTY_MEASURE_WITH_UNIT (LENGTH_MEASURE( 1.000000000000000082E-05 ), #10, 'distance_accuracy_value', 'NONE');
#1037 = ADVANCED_FACE ( 'NONE', ( #178 ), #1242, .F. ) ;
#1038 = AXIS2_PLACEMENT_3D ( 'NONE', #317, #802, #327 ) ;
#1039 = FACE_OUTER_BOUND ( 'NONE', #1016, .T. ) ;
#1040 = ADVANCED_FACE ( 'NONE', ( #928 ), #1136, .F. ) ;
#1041 = VECTOR ( 'NONE', #139, 1000.000000000000000 ) ;
#1042 = PLANE ( 'NONE',  #451 ) ;
#1043 = VECTOR ( 'NONE', #1026, 1000.000000000000000 ) ;
#1044 = ORIENTED_EDGE ( 'NONE', *, *, #1159, .F. ) ;
#1045 = LINE ( 'NONE', #871, #313 ) ;
#1046 = VERTEX_POINT ( 'NONE', #784 ) ;
#1047 = EDGE_LOOP ( 'NONE', ( #577, #506, #131, #170 ) ) ;
#1048 = DIRECTION ( 'NONE',  ( 0.000000000000000000, -1.000000000000000000, 0.000000000000000000 ) ) ;
#1049 = CARTESIAN_POINT ( 'NONE',  ( 24.49999999344351664, -7.999999199285761975, 1.500000000000000000 ) ) ;
#1050 = DIRECTION ( 'NONE',  ( -0.000000000000000000, -0.000000000000000000, -1.000000000000000000 ) ) ;
#1051 = DIRECTION ( 'NONE',  ( 0.000000000000000000, 1.000000000000000000, 0.000000000000000000 ) ) ;
#1052 = EDGE_LOOP ( 'NONE', ( #250 ) ) ;
#1053 = PLANE ( 'NONE',  #739 ) ;
#1054 = CARTESIAN_POINT ( 'NONE',  ( 28.37677472054236105, 28.37677968209647617, 2.500000000000000000 ) ) ;
#1055 = ORIENTED_EDGE ( 'NONE', *, *, #202, .F. ) ;
#1056 = ADVANCED_FACE ( 'NONE', ( #725, #453 ), #843, .F. ) ;
#1057 = ORIENTED_EDGE ( 'NONE', *, *, #360, .F. ) ;
#1058 = CARTESIAN_POINT ( 'NONE',  ( 10.84999999344338306, -4.999999195312474498, 1.500000000000000000 ) ) ;
#1059 = EDGE_LOOP ( 'NONE', ( #214, #77, #319, #245 ) ) ;
#1060 = VECTOR ( 'NONE', #975, 1000.000000000000000 ) ;
#1061 = AXIS2_PLACEMENT_3D ( 'NONE', #1212, #47, #898 ) ;
#1062 = VECTOR ( 'NONE', #713, 1000.000000000000000 ) ;
#1063 = PLANE ( 'NONE',  #1119 ) ;
#1064 = DIRECTION ( 'NONE',  ( -0.000000000000000000, 0.000000000000000000, 1.000000000000000000 ) ) ;
#1065 = EDGE_LOOP ( 'NONE', ( #937, #228, #795, #1202 ) ) ;
#1066 = DIRECTION ( 'NONE',  ( -0.7071068428022516672, 0.7071067195708379272, 0.000000000000000000 ) ) ;
#1067 = LINE ( 'NONE', #773, #1185 ) ;
#1068 = LINE ( 'NONE', #971, #70 ) ;
#1069 = PRODUCT ( 'ÅÅÏß¿¨×ù_#001', 'ÅÅÏß¿¨×ù_#001', '', ( #142 ) ) ;
#1070 = ORIENTED_EDGE ( 'NONE', *, *, #384, .F. ) ;
#1071 = LINE ( 'NONE', #216, #717 ) ;
#1072 = EDGE_CURVE ( 'NONE', #15, #414, #1114, .T. ) ;
#1073 = PRESENTATION_LAYER_ASSIGNMENT (  '', '', ( #548 ) ) ;
#1074 = LINE ( 'NONE', #608, #1205 ) ;
#1075 = PRODUCT_DEFINITION_CONTEXT ( 'detailed design', #299, 'design' ) ;
#1076 = ORIENTED_EDGE ( 'NONE', *, *, #755, .F. ) ;
#1077 = FACE_OUTER_BOUND ( 'NONE', #932, .T. ) ;
#1078 = DIRECTION ( 'NONE',  ( 0.000000000000000000, 0.000000000000000000, 1.000000000000000000 ) ) ;
#1079 = AXIS2_PLACEMENT_3D ( 'NONE', #185, #208, #759 ) ;
#1080 = CARTESIAN_POINT ( 'NONE',  ( -0.1767766798927095651, -0.1767767107005628613, 1.500000000000000000 ) ) ;
#1081 = VECTOR ( 'NONE', #88, 1000.000000000000000 ) ;
#1082 = VECTOR ( 'NONE', #59, 1000.000000000000000 ) ;
#1083 = ORIENTED_EDGE ( 'NONE', *, *, #147, .T. ) ;
#1084 = PLANE ( 'NONE',  #497 ) ;
#1085 = VECTOR ( 'NONE', #447, 1000.000000000000114 ) ;
#1086 = CARTESIAN_POINT ( 'NONE',  ( 17.98096508659633486, 36.64693907851730614, 5.000000000000000888 ) ) ;
#1087 = ADVANCED_BREP_SHAPE_REPRESENTATION ( 'ÅÅÏß¿¨×ù_#001', ( #841, #987 ), #388 ) ;
#1088 = PLANE ( 'NONE',  #575 ) ;
#1089 = SHAPE_DEFINITION_REPRESENTATION ( #705, #1087 ) ;
#1090 = ORIENTED_EDGE ( 'NONE', *, *, #278, .T. ) ;
#1091 = FACE_OUTER_BOUND ( 'NONE', #531, .T. ) ;
#1092 = LINE ( 'NONE', #145, #200 ) ;
#1093 = EDGE_CURVE ( 'NONE', #452, #757, #462, .T. ) ;
#1094 = EDGE_LOOP ( 'NONE', ( #1216, #644, #1190, #904, #1096 ) ) ;
#1095 = CARTESIAN_POINT ( 'NONE',  ( 13.55842197558025752, -7.999999199285761975, 3.500000000000000000 ) ) ;
#1096 = ORIENTED_EDGE ( 'NONE', *, *, #6, .F. ) ;
#1097 = CARTESIAN_POINT ( 'NONE',  ( -20.00000000655676402, 15.75735620362123868, 3.500000000000000000 ) ) ;
#1098 = DIRECTION ( 'NONE',  ( 0.000000000000000000, 1.000000000000000000, 0.000000000000000000 ) ) ;
#1099 = CARTESIAN_POINT ( 'NONE',  ( -6.000000006556621024, -7.999999199285761975, 1.500000000000000444 ) ) ;
#1100 = ORIENTED_EDGE ( 'NONE', *, *, #737, .F. ) ;
#1101 = LINE ( 'NONE', #1191, #356 ) ;
#1102 = VECTOR ( 'NONE', #1247, 1000.000000000000000 ) ;
#1103 = VECTOR ( 'NONE', #502, 1000.000000000000000 ) ;
#1104 = DIRECTION ( 'NONE',  ( -0.000000000000000000, 0.000000000000000000, 1.000000000000000000 ) ) ;
#1105 = ORIENTED_EDGE ( 'NONE', *, *, #1133, .F. ) ;
#1106 = CARTESIAN_POINT ( 'NONE',  ( -6.000000006556621024, 1.757358643478399873, 0.000000000000000000 ) ) ;
#1107 = ORIENTED_EDGE ( 'NONE', *, *, #1159, .T. ) ;
#1108 = CARTESIAN_POINT ( 'NONE',  ( 29.61911841575427928, 29.61912359452679411, 3.500000000000000000 ) ) ;
#1109 = CARTESIAN_POINT ( 'NONE',  ( 0.5177668891612171587, 1.250000000000000222, 2.500000000000000000 ) ) ;
#1110 = ORIENTED_EDGE ( 'NONE', *, *, #1030, .T. ) ;
#1111 = EDGE_CURVE ( 'NONE', #121, #894, #1035, .T. ) ;
#1112 = DIRECTION ( 'NONE',  ( 0.000000000000000000, -1.000000000000000000, 0.000000000000000000 ) ) ;
#1113 = ORIENTED_EDGE ( 'NONE', *, *, #719, .F. ) ;
#1114 = LINE ( 'NONE', #1215, #568 ) ;
#1115 = AXIS2_PLACEMENT_3D ( 'NONE', #665, #1064, #14 ) ;
#1116 = DIRECTION ( 'NONE',  ( 1.000000000000000000, -0.000000000000000000, 0.000000000000000000 ) ) ;
#1117 = ADVANCED_FACE ( 'NONE', ( #369 ), #544, .T. ) ;
#1118 = CARTESIAN_POINT ( 'NONE',  ( 0.000000000000000000, -7.999999199285761975, 5.000000000000000888 ) ) ;
#1119 = AXIS2_PLACEMENT_3D ( 'NONE', #767, #467, #461 ) ;
#1120 = ORIENTED_EDGE ( 'NONE', *, *, #1174, .T. ) ;
#1121 = DIRECTION ( 'NONE',  ( -1.000000000000000000, 0.000000000000000000, -0.000000000000000000 ) ) ;
#1122 = VERTEX_POINT ( 'NONE', #754 ) ;
#1123 = CARTESIAN_POINT ( 'NONE',  ( 24.49999999344351664, -7.999999199285761975, 5.000000000000000888 ) ) ;
#1124 = VECTOR ( 'NONE', #331, 1000.000000000000000 ) ;
#1125 =( GEOMETRIC_REPRESENTATION_CONTEXT ( 3 ) GLOBAL_UNCERTAINTY_ASSIGNED_CONTEXT ( ( #482 ) ) GLOBAL_UNIT_ASSIGNED_CONTEXT ( ( #674, #494, #1252 ) ) REPRESENTATION_CONTEXT ( 'NONE', 'WORKASPACE' ) );
#1126 = DIRECTION ( 'NONE',  ( 0.000000000000000000, -0.000000000000000000, 1.000000000000000000 ) ) ;
#1127 = VERTEX_POINT ( 'NONE', #1144 ) ;
#1128 = EDGE_CURVE ( 'NONE', #326, #766, #748, .T. ) ;
#1129 = EDGE_LOOP ( 'NONE', ( #855 ) ) ;
#1130 = CARTESIAN_POINT ( 'NONE',  ( 18.64999999344338022, -10.99999919928576553, 0.000000000000000000 ) ) ;
#1131 = PLANE ( 'NONE',  #258 ) ;
#1132 = LINE ( 'NONE', #141, #533 ) ;
#1133 = EDGE_CURVE ( 'NONE', #363, #803, #68, .T. ) ;
#1134 = ORIENTED_EDGE ( 'NONE', *, *, #593, .T. ) ;
#1135 = VERTEX_POINT ( 'NONE', #915 ) ;
#1136 = PLANE ( 'NONE',  #1189 ) ;
#1137 = ADVANCED_FACE ( 'NONE', ( #435, #62 ), #277, .T. ) ;
#1138 = DIRECTION ( 'NONE',  ( 0.000000000000000000, 0.000000000000000000, 1.000000000000000000 ) ) ;
#1139 = VECTOR ( 'NONE', #579, 1000.000000000000000 ) ;
#1140 = FACE_OUTER_BOUND ( 'NONE', #434, .T. ) ;
#1141 = ORIENTED_EDGE ( 'NONE', *, *, #1156, .F. ) ;
#1142 = EDGE_CURVE ( 'NONE', #549, #425, #150, .T. ) ;
#1143 = DIRECTION ( 'NONE',  ( -0.000000000000000000, -0.000000000000000000, 1.000000000000000000 ) ) ;
#1144 = CARTESIAN_POINT ( 'NONE',  ( 18.60355307181104934, 38.14999962202331574, 1.500000000000000000 ) ) ;
#1145 = VECTOR ( 'NONE', #39, 1000.000000000000000 ) ;
#1146 = CLOSED_SHELL ( 'NONE', ( #832, #601, #1056, #381, #684, #476, #1040, #1233, #48, #1169, #293, #471, #89, #869, #1010, #729, #587, #119, #124, #1137, #996, #458, #1250, #163, #899, #166, #1117, #806, #875, #923, #714, #510, #32, #417, #1014, #116, #870, #1037, #217 ) ) ;
#1147 = ORIENTED_EDGE ( 'NONE', *, *, #699, .F. ) ;
#1148 = FACE_OUTER_BOUND ( 'NONE', #642, .T. ) ;
#1149 = EDGE_CURVE ( 'NONE', #463, #551, #532, .T. ) ;
#1150 = AXIS2_PLACEMENT_3D ( 'NONE', #421, #612, #243 ) ;
#1151 = PLANE ( 'NONE',  #917 ) ;
#1152 = VECTOR ( 'NONE', #804, 1000.000000000000000 ) ;
#1153 = ORIENTED_EDGE ( 'NONE', *, *, #883, .T. ) ;
#1154 = CARTESIAN_POINT ( 'NONE',  ( 0.5177668891612171587, 1.250000000000000222, 2.500000000000000000 ) ) ;
#1155 = CARTESIAN_POINT ( 'NONE',  ( 24.49999999344351664, 39.90693907851730415, 1.500000000000000000 ) ) ;
#1156 = EDGE_CURVE ( 'NONE', #1251, #954, #732, .T. ) ;
#1157 = ORIENTED_EDGE ( 'NONE', *, *, #242, .F. ) ;
#1158 = CARTESIAN_POINT ( 'NONE',  ( -2.121320158712513670, -2.121320528406754669, 3.500000000000000000 ) ) ;
#1159 = EDGE_CURVE ( 'NONE', #115, #785, #446, .T. ) ;
#1160 = CARTESIAN_POINT ( 'NONE',  ( 9.249999993443383417, -4.999999195312474498, 1.500000000000000000 ) ) ;
#1161 = LINE ( 'NONE', #9, #936 ) ;
#1162 = LINE ( 'NONE', #780, #249 ) ;
#1163 = ORIENTED_EDGE ( 'NONE', *, *, #110, .T. ) ;
#1164 = CARTESIAN_POINT ( 'NONE',  ( 0.000000000000000000, 0.000000000000000000, 1.500000000000000000 ) ) ;
#1165 = DIRECTION ( 'NONE',  ( 0.000000000000000000, 0.000000000000000000, -1.000000000000000000 ) ) ;
#1166 = LINE ( 'NONE', #672, #592 ) ;
#1167 = VERTEX_POINT ( 'NONE', #1130 ) ;
#1168 = PLANE ( 'NONE',  #537 ) ;
#1169 = ADVANCED_FACE ( 'NONE', ( #646 ), #1029, .T. ) ;
#1170 = MECHANICAL_DESIGN_GEOMETRIC_PRESENTATION_REPRESENTATION (  '', ( #377 ), #1125 ) ;
#1171 = PLANE ( 'NONE',  #1079 ) ;
#1172 = DIRECTION ( 'NONE',  ( 1.000000000000000000, 2.952720847795061126E-16, -0.000000000000000000 ) ) ;
#1173 = ORIENTED_EDGE ( 'NONE', *, *, #658, .T. ) ;
#1174 = EDGE_CURVE ( 'NONE', #557, #785, #390, .T. ) ;
#1175 = LINE ( 'NONE', #700, #332 ) ;
#1176 = EDGE_CURVE ( 'NONE', #944, #303, #1162, .T. ) ;
#1177 = ORIENTED_EDGE ( 'NONE', *, *, #1195, .T. ) ;
#1178 = LINE ( 'NONE', #393, #412 ) ;
#1179 = CARTESIAN_POINT ( 'NONE',  ( -5.000000006556759580, 6.767765934106275694, 2.500000000000000000 ) ) ;
#1180 = VECTOR ( 'NONE', #539, 1000.000000000000000 ) ;
#1181 = DIRECTION ( 'NONE',  ( 0.000000000000000000, 1.000000000000000000, 0.000000000000000000 ) ) ;
#1182 = ORIENTED_EDGE ( 'NONE', *, *, #110, .F. ) ;
#1183 = DIRECTION ( 'NONE',  ( 0.000000000000000000, 0.000000000000000000, 1.000000000000000000 ) ) ;
#1184 = PLANE ( 'NONE',  #959 ) ;
#1185 = VECTOR ( 'NONE', #753, 1000.000000000000114 ) ;
#1186 = EDGE_CURVE ( 'NONE', #648, #1122, #368, .T. ) ;
#1187 = CARTESIAN_POINT ( 'NONE',  ( -6.000000006556621024, 1.757358643478399873, -2.000000000000000000 ) ) ;
#1188 = VECTOR ( 'NONE', #525, 1000.000000000000000 ) ;
#1189 = AXIS2_PLACEMENT_3D ( 'NONE', #633, #652, #558 ) ;
#1190 = ORIENTED_EDGE ( 'NONE', *, *, #849, .F. ) ;
#1191 = CARTESIAN_POINT ( 'NONE',  ( -2.121320158712513670, -2.121320528406754669, 5.000000000000000888 ) ) ;
#1192 = PRODUCT_DEFINITION ( 'Î´Öª', '', #614, #1075 ) ;
#1193 = CARTESIAN_POINT ( 'NONE',  ( 17.98096508659633486, 36.64693907851730614, 2.500000000000000000 ) ) ;
#1194 = EDGE_CURVE ( 'NONE', #1122, #628, #949, .T. ) ;
#1195 = EDGE_CURVE ( 'NONE', #632, #590, #1068, .T. ) ;
#1196 = CARTESIAN_POINT ( 'NONE',  ( -20.00000000655676402, 19.64644316126092605, 1.500000000000000444 ) ) ;
#1197 = ORIENTED_EDGE ( 'NONE', *, *, #812, .F. ) ;
#1198 = LINE ( 'NONE', #982, #1103 ) ;
#1199 = CARTESIAN_POINT ( 'NONE',  ( -0.1500000065566215457, -10.99999919928576553, -2.000000000000000000 ) ) ;
#1200 = LINE ( 'NONE', #1187, #17 ) ;
#1201 = VECTOR ( 'NONE', #922, 1000.000000000000000 ) ;
#1202 = ORIENTED_EDGE ( 'NONE', *, *, #838, .T. ) ;
#1203 = CARTESIAN_POINT ( 'NONE',  ( 9.249999993443383417, -4.999999195312474498, 1.500000000000000000 ) ) ;
#1204 = CARTESIAN_POINT ( 'NONE',  ( -0.1035533778322433318, -0.2500000000000000000, 1.500000000000000000 ) ) ;
#1205 = VECTOR ( 'NONE', #796, 1000.000000000000000 ) ;
#1206 = LINE ( 'NONE', #424, #220 ) ;
#1207 = ORIENTED_EDGE ( 'NONE', *, *, #787, .T. ) ;
#1208 = CARTESIAN_POINT ( 'NONE',  ( 0.000000000000000000, 0.000000000000000000, -2.000000000000000000 ) ) ;
#1209 = EDGE_CURVE ( 'NONE', #452, #285, #967, .T. ) ;
#1210 = CIRCLE ( 'NONE', #20, 1.599999999999998979 ) ;
#1211 = AXIS2_PLACEMENT_3D ( 'NONE', #722, #1104, #321 ) ;
#1212 = CARTESIAN_POINT ( 'NONE',  ( 9.249999993443378088, -4.999999195312474498, 5.000000000000000888 ) ) ;
#1213 = FACE_OUTER_BOUND ( 'NONE', #1094, .T. ) ;
#1214 = ORIENTED_EDGE ( 'NONE', *, *, #524, .F. ) ;
#1215 = CARTESIAN_POINT ( 'NONE',  ( 4.395877702158426104, -3.000000000000000000, 3.500000000000000000 ) ) ;
#1216 = ORIENTED_EDGE ( 'NONE', *, *, #498, .F. ) ;
#1217 = LINE ( 'NONE', #930, #201 ) ;
#1218 = CARTESIAN_POINT ( 'NONE',  ( -0.1500000065566215179, -10.99999919928576553, 0.000000000000000000 ) ) ;
#1219 = ORIENTED_EDGE ( 'NONE', *, *, #161, .F. ) ;
#1220 = ORIENTED_EDGE ( 'NONE', *, *, #370, .T. ) ;
#1221 = DIRECTION ( 'NONE',  ( 1.000000000000000000, 0.000000000000000000, 0.000000000000000000 ) ) ;
#1222 = AXIS2_PLACEMENT_3D ( 'NONE', #172, #107, #5 ) ;
#1223 = ORIENTED_EDGE ( 'NONE', *, *, #963, .F. ) ;
#1224 = CARTESIAN_POINT ( 'NONE',  ( -20.00000000655676047, 19.64644316126092249, 5.000000000000000888 ) ) ;
#1225 = LINE ( 'NONE', #643, #1188 ) ;
#1226 = AXIS2_PLACEMENT_3D ( 'NONE', #520, #900, #602 ) ;
#1227 = ORIENTED_EDGE ( 'NONE', *, *, #219, .T. ) ;
#1228 = CARTESIAN_POINT ( 'NONE',  ( -20.00000000655676757, 1.757358643478399873, 0.000000000000000000 ) ) ;
#1229 = EDGE_CURVE ( 'NONE', #279, #1167, #296, .T. ) ;
#1230 = EDGE_LOOP ( 'NONE', ( #651, #73, #195, #610 ) ) ;
#1231 = LINE ( 'NONE', #78, #919 ) ;
#1232 = VECTOR ( 'NONE', #286, 1000.000000000000000 ) ;
#1233 = ADVANCED_FACE ( 'NONE', ( #114 ), #962, .F. ) ;
#1234 = DIRECTION ( 'NONE',  ( 0.000000000000000000, 1.000000000000000000, 0.000000000000000000 ) ) ;
#1235 = VERTEX_POINT ( 'NONE', #468 ) ;
#1236 = ORIENTED_EDGE ( 'NONE', *, *, #911, .F. ) ;
#1237 = CARTESIAN_POINT ( 'NONE',  ( 24.49999999344351664, 39.90693907851730415, 5.000000000000000888 ) ) ;
#1238 = PLANE ( 'NONE',  #21 ) ;
#1239 = DIRECTION ( 'NONE',  ( 0.000000000000000000, 0.000000000000000000, -1.000000000000000000 ) ) ;
#1240 = ORIENTED_EDGE ( 'NONE', *, *, #699, .T. ) ;
#1241 = CARTESIAN_POINT ( 'NONE',  ( -5.000000006556759580, 39.90693907851730415, 1.500000000000000000 ) ) ;
#1242 = PLANE ( 'NONE',  #479 ) ;
#1243 = ORIENTED_EDGE ( 'NONE', *, *, #346, .F. ) ;
#1244 = DIRECTION ( 'NONE',  ( -0.000000000000000000, 0.000000000000000000, 1.000000000000000000 ) ) ;
#1245 =( GEOMETRIC_REPRESENTATION_CONTEXT ( 3 ) GLOBAL_UNCERTAINTY_ASSIGNED_CONTEXT ( ( #584 ) ) GLOBAL_UNIT_ASSIGNED_CONTEXT ( ( #500, #893, #711 ) ) REPRESENTATION_CONTEXT ( 'NONE', 'WORKASPACE' ) );
#1246 = EDGE_CURVE ( 'NONE', #944, #656, #1166, .T. ) ;
#1247 = DIRECTION ( 'NONE',  ( 1.000000000000000000, -0.000000000000000000, 0.000000000000000000 ) ) ;
#1248 = LINE ( 'NONE', #473, #38 ) ;
#1249 =( NAMED_UNIT ( * ) SI_UNIT ( $, .STERADIAN. ) SOLID_ANGLE_UNIT ( ) );
#1250 = ADVANCED_FACE ( 'NONE', ( #571 ), #396, .F. ) ;
#1251 = VERTEX_POINT ( 'NONE', #302 ) ;
#1252 =( NAMED_UNIT ( * ) SI_UNIT ( $, .STERADIAN. ) SOLID_ANGLE_UNIT ( ) );
ENDSEC;
END-ISO-10303-21;
